/* XPM */
static char *result[] = {
/* columns rows colors chars-per-pixel */
"64 64 158 2 ",
"   c #020003",
".  c #0A0505",
"X  c #06020A",
"o  c #0A040C",
"O  c #0B090D",
"+  c #12040E",
"@  c #110C0C",
"#  c #070310",
"$  c #0D0511",
"%  c #0E0A13",
"&  c #0C0718",
"*  c #110614",
"=  c #120C14",
"-  c #190D17",
";  c #150D1A",
":  c #190E1C",
">  c #131215",
",  c #191416",
"<  c #191817",
"1  c #161219",
"2  c #1A141D",
"3  c #17181B",
"4  c #1B1A1D",
"5  c #221D1D",
"6  c #160E20",
"7  c #1D1422",
"8  c #1E1B22",
"9  c #1E152A",
"0  c #1E1B28",
"q  c #240F22",
"w  c #211625",
"e  c #221B25",
"r  c #22172A",
"t  c #251C2B",
"y  c #291D2C",
"u  c #221730",
"i  c #241C31",
"p  c #2A1C32",
"a  c #1F2021",
"s  c #232224",
"d  c #2B2724",
"f  c #26232B",
"g  c #29232C",
"h  c #2B2A2D",
"j  c #312E2B",
"k  c #34312E",
"l  c #262031",
"z  c #2B2330",
"x  c #2E2D31",
"c  c #2F273A",
"v  c #312F33",
"b  c #333334",
"n  c #393634",
"m  c #3D3A36",
"M  c #363038",
"N  c #3A363B",
"B  c #3C3B3B",
"V  c #3F3E41",
"C  c #413F42",
"Z  c #444445",
"A  c #4C4944",
"S  c #47464C",
"D  c #48474A",
"F  c #4B4A4C",
"G  c #524F4A",
"H  c #55524E",
"J  c #4D4D52",
"K  c #514F54",
"L  c #545354",
"P  c #595653",
"I  c #595854",
"U  c #555559",
"Y  c #58565A",
"T  c #5B5A5D",
"R  c #5F615B",
"E  c #5E5C61",
"W  c #615E62",
"Q  c #636364",
"!  c #646866",
"~  c #6A6A67",
"^  c #656568",
"/  c #69666B",
"(  c #676969",
")  c #6B6B6C",
"_  c #72716E",
"`  c #6F6D71",
"'  c #716F75",
"]  c #757474",
"[  c #787876",
"{  c #777679",
"}  c #78777B",
"|  c #7B7B7B",
" . c #807E7F",
".. c #7E817F",
"X. c #7D7C81",
"o. c #807E82",
"O. c #838384",
"+. c #8A8987",
"@. c #868689",
"#. c #868988",
"$. c #8B8B8C",
"%. c #8F908F",
"&. c #90908D",
"*. c #8E8E91",
"=. c #918F93",
"-. c #8F9292",
";. c #939294",
":. c #989496",
">. c #9C9B96",
",. c #969599",
"<. c #98959B",
"1. c #979899",
"2. c #9B9B9C",
"3. c #A19E9F",
"4. c #9E9CA1",
"5. c #A09FA3",
"6. c #9FA1A0",
"7. c #A3A3A4",
"8. c #AAABA6",
"9. c #A7A6A9",
"0. c #A8A6AB",
"q. c #ACABAD",
"w. c #ACB1AD",
"e. c #B1B1AD",
"r. c #AFAEB1",
"t. c #B3B3B4",
"y. c #B9BAB6",
"u. c #B6B6B8",
"i. c #B9B7BA",
"p. c #BCBBBD",
"a. c #C0BFBA",
"s. c #BEBEC1",
"d. c #C1BEC2",
"f. c #C4C4C4",
"g. c #C8C6C8",
"h. c #CCCCCD",
"j. c #D0CFCD",
"k. c #D1D1CF",
"l. c #CECDD1",
"z. c #D3D2D5",
"x. c #DADAD7",
"c. c #D9D7D9",
"v. c #DBDBDB",
"b. c #E2E1DF",
"n. c #DCDCE0",
"m. c #E3E3E4",
"M. c #E7E6E9",
"N. c #E8E6E9",
"B. c #C39662",
"V. c #ECECEB",
"C. c #F0F0EE",
"Z. c #EFF1F3",
"A. c #F4F3F4",
"S. c #FBFCF7",
"D. c #F6F7FA",
"F. c #C39662",
"G. c #C39662",
"H. c #C39662",
/* pixels */
"H.H.H.H.H.H.H.H.H.H.H.H.H.H.H.H.H.H.H.H.H.H.H.H.H.H.H.H.H.H.H.H.H.H.H.H.H.H.H.H.H.H.H.H.H.H.H.H.H.H.H.H.H.H.H.H.H.H.H.H.H.H.H.H.",
"H.H.H.H.H.H.H.H.H.H.H.H.H.H.H.H.H.H.H.H.H.H.H.H.H.H.S.F.H.H.H.G.H.H.H.H.H.H.H.H.H.H.H.H.H.H.H.H.H.H.H.H.H.H.H.H.H.H.H.H.H.H.H.H.",
"H.H.H.H.H.H.H.H.H.H.H.H.H.H.H.H.H.H.H.H.H.H.F.H.H.H.H.H.H.H.H.H.H.H.H.H.H.H.H.H.H.H.H.H.H.H.H.H.H.H.H.H.H.H.H.H.H.H.H.H.H.H.H.H.",
"H.H.H.H.H.H.H.H.H.H.H.H.H.H.H.H.H.H.H.H.H.H.H.H.A.z.;.^ D x B r.H.H.H.H.H.H.H.H.H.H.H.H.H.H.H.H.H.H.H.H.H.H.H.H.H.H.H.H.H.H.H.H.",
"H.H.H.H.H.H.H.H.H.H.H.H.H.H.H.H.H.H.H.H.H.F.7.Z h >     X X     x w.H.H.H.H.H.F.H.H.H.H.H.H.H.H.H.H.H.H.H.H.H.H.H.H.H.H.H.H.H.H.",
"H.H.H.H.H.H.H.H.H.H.H.H.H.H.H.H.H.H.H.H.@.g $ % ; 5 d y y t 9 9 o   $.H.H.H.H.H.H.H.H.H.H.H.H.H.H.H.H.H.H.H.H.H.H.H.H.H.H.H.H.H.",
"H.H.H.H.H.H.H.H.H.H.H.H.H.H.H.H.H.H.Z.Z   % 1 % o + + - - y y t 0 O > n [ C.F.p.h.H.H.H.H.H.H.H.H.H.H.H.H.H.H.H.H.H.H.H.H.H.H.H.",
"H.H.H.H.H.H.H.H.H.H.H.H.H.H.H.H.H.V.n   a O   > > > @ X . - : t t 7 &   O V K 8 4 t.H.H.H.H.H.H.H.H.H.H.H.H.H.H.H.H.H.H.H.H.H.H.",
"H.H.H.H.H.H.H.H.H.H.H.H.H.H.H.S.H.6.  4 > 3 3 ^ [ [ L O O   = 2 0 u u i t o   .   -.H.F.H.H.H.H.F.H.H.H.H.H.H.H.H.H.H.H.H.H.H.H.",
"H.H.H.H.H.H.H.H.H.H.H.H.H.H.H.H.y.b > . C 9.} 5.z.l.1.E R < X % 6 i p i p z 2   % x.H.H.H.F.H.H.H.H.H.H.H.H.H.H.H.H.H.H.H.H.H.H.",
"H.H.H.H.H.H.H.H.H.H.H.H.H.G.H.c.h o 8   N 5.r.z.G.D.l.s.h.' > X * 7 y y q -   3 h.H.H.H.H.H.S.q.t.H.H.H.H.H.H.H.H.H.S.H.H.H.H.H.",
"H.H.H.H.H.H.H.H.H.H.H.H.H.H.H.B   f o 3 / r.B.G.G.G.A.Z.v.;.a   = q y t *   N b.H.F.F.H.H.w.x     1.H.H.H.H.H.H.H.H.H.H.H.H.H.H.",
"H.H.H.H.H.H.H.H.H.H.H.H.H.H.@.  3 X 3 { t.%.7.A.H.H.m.<.| T F 3 X 7 t t X g H.H.H.H.H.M.J   7 c u & z.H.S.H.H.H.H.S.S.H.H.H.H.H.",
"H.H.H.H.H.H.H.H.H.H.H.H.H.H.D O >   E w.#.> a x.H.H.s.%   a 6.) o X - 5   8 V.F.p.g.$.0 X 7 i u u 6 g.H.H.H.H.H.H.S.H.H.H.H.H.H.",
"H.H.H.H.H.H.H.H.H.H.H.H.H.j.b % > 3 ,.r.<   h v.H.H.p.%   a 1.w.! >   = = X g v X X X 1 0 w w 7 t t s.H.H.H.H.H.H.H.H.H.H.H.H.H.",
"H.H.H.H.H.H.H.H.H.H.H.H.C.b X 4 X K 6.-.<   k k.V.D.s.3     3 -.w.( 4 > 5 5 - X % 6 r i t t 2 7 y * 4.H.G.H.H.H.H.H.H.H.H.H.H.H.",
"H.H.H.H.H.H.H.H.H.H.H.H.v.s   % 3 ] ` >   s X.y.p.c.z.` 8     > 1.y.R O - y y * * t p t y t 7 = :   $.H.F.H.H.H.H.H.H.H.H.H.H.H.",
"H.H.H.H.H.H.H.H.H.H.H.H.v.s . > T u.*.  h *.s.,.{ 9.l.i.} a   O ;.t.T O 4 t = o 6 t r 7 t 7 w 2 X B F.H.H.H.H.H.H.H.H.H.H.H.H.H.",
"H.H.H.H.H.H.H.H.H.H.H.H.b.m @ O ! s.*.v ,.M.,.x > Z t.B.f.' 0 E &.^ 3 X 1 8 * X 7 r 7 r 6 r t 5   2.H.H.H.H.H.H.H.H.H.H.H.H.H.H.",
"H.H.H.H.H.H.H.H.H.H.H.H.S.x.B O a ) 0.s.M.A.T   O O *.H.A.s.X.q.9.G   > 8 1 o X * q t r : q w t   :.H.F.H.H.H.H.H.H.H.H.H.H.H.H.",
"H.H.H.H.H.H.H.H.H.H.H.H.H.C.Z X > 3 E p.F.F.u.| ) $.h.H.F.h.i.q./ 4 > e 2 X X & 7 w 7 r t * * t 1 h v.H.H.H.H.H.H.H.H.H.H.H.H.H.",
"H.H.H.H.H.H.H.H.H.H.H.H.H.C.Z   f o M 2.m.A.u.E N ] z.H.F.N.q.T > % t 1 . X o : 9 7 t p p * X O ,   B H.H.H.H.H.H.H.H.H.H.H.H.H.",
"H.H.H.H.H.H.H.H.H.H.H.S.H.V.b   4 = f ^ q.h.Y     O 2.H.H.A.=.8 X e 2 X X X - y w : r t t : o = = 3   O.H.H.H.H.H.H.H.H.H.H.H.H.",
"H.H.H.H.H.H.H.H.H.H.H.H.H.A.i.C   4 o f ,.h.Z   O   #.H.H.v.,.M % e # $ - = w r w : - w y t * 2 w .   V F.H.H.H.H.H.H.H.H.H.H.H.",
"H.H.H.H.H.H.H.H.H.H.H.H.H.H.z.F   s % h 9.A.K       ..A.A.u.` 8 - 7 X - y w q ; 2 w * : w t * = e 1   F F.H.H.H.H.H.H.H.H.H.H.H.",
"H.H.H.H.H.H.H.H.H.H.H.H.H.H.Z   % > % h 5.A.K   .   R x.h.( = % e = $ 5 r 5 - = w t 2 : - t - $ 2 >   M h.H.H.H.H.H.H.H.H.H.H.H.",
"H.H.H.H.H.H.H.H.H.H.H.H.H.H.L 3 1 o   x 4.N.U     f #.w.! > O e > o : r : + * - 7 t w * : w $ : 8 $ > O v f.S.H.H.H.H.H.H.H.H.H.",
"H.H.H.H.H.H.H.H.H.H.H.H.H.H.L = =     M $.p.=.T V -.p.` > O 8 1 X : t 7 r * * 2 * ; e : : o X 7 g t s 8 X j j.H.H.H.H.H.H.H.H.H.",
"H.H.H.H.H.H.H.H.H.H.H.H.H.H.T O 1 X o % x X.s.M.z.4.X.^ % % % X X 2 y w + o = : $ o ; t ; o X 7 e , 2 1 . > j.H.H.H.H.H.H.H.H.H.",
"H.H.H.H.H.H.H.H.H.H.H.H.H.H.B = t 1   X   x @.<.;.T 4 8 > 8 o O e t 2 $ $ o = * X = w & * : o : 2 $ $ $ X 4 j.H.H.H.H.H.H.H.H.H.",
"H.H.H.H.H.H.H.H.H.H.H.H.H.N.4 : 7 7 = X > 8 f e s 1 O % O o o 7 g 5 . o * X = O X : w X & : # 6 f e 2 w e o W H.H.H.H.H.H.H.H.H.",
"H.H.H.H.H.H.H.H.H.H.H.H.H.H.F   0 f 7 X $ = O > # X % %   X > 1 % o X = 2 o O X = w 7 ; X & # 7 l w t t 8 X x H.H.H.H.H.H.H.H.H.",
"H.H.H.H.H.H.H.H.H.H.H.H.H.H.2.X g w = & 7 # % 1 = X X X = = 2 =     o 2 w # X X 2 i w ; X = o 6 r : ; = $   Z H.S.H.H.H.H.H.H.H.",
"H.H.H.H.H.H.H.H.H.H.H.H.H.H.A.D . > o O 1 % = ; 2 2 : * = - * X o X X 7 t 1 X ; y t 7 ; X # 7 t 7 1 7 X X   D H.H.H.H.H.H.H.H.H.",
"H.H.H.H.H.H.H.H.H.H.H.H.H.S.H./ X 2 X X   X = 1 2 w , o X X X o $ O $ : p t : 9 r 1 * = o X r y = - ; X X   L H.F.H.H.H.H.H.H.H.",
"H.H.H.H.H.H.H.H.H.H.H.H.H.H.H.$.  2   X   X   X . X X   X - = 3 : $ o ; r r 7 * $ * # X X X 2 , .   X > 4   E H.S.H.H.H.H.H.H.H.",
"H.H.H.H.H.H.H.H.H.H.H.H.H.H.H.N.3   X o O   X 3     = = ; l f r w % X # = * = $ X * = X . X = O X o 2 e g O / H.F.H.H.H.H.H.H.H.",
"H.H.H.H.H.H.H.H.H.H.H.H.H.H.H.H.S   % 1 3 O X > B v O 4 f f t t 1 $ X o $ # # ; 2 , = . X   X X X > f 1 ; O ] H.H.H.H.H.H.H.H.H.",
"H.H.H.H.H.H.H.H.H.H.H.H.H.H.H.H.L - 7 1 %     . 8.>.4 e 3 & & ; % # X # 1 ; ; 9 g e = o o O @ O O . 7 t ; X { H.F.H.H.H.H.H.H.H.",
"H.H.H.H.H.H.H.H.H.H.H.H.H.H.H.V.f 2 # X   ;.;.F x.z.] L 7 1 O   # o o % : t f t 2 & X % 8 a g 2 $ 9 i 9 = X | H.S.H.H.H.H.H.H.H.",
"H.H.H.H.H.H.H.H.H.H.H.H.H.F.H.;.  t 1 1   #.H.H.H.h.+...Q T g % 3 2 % X = f f t 7 * X X , @ , + = r 7 9 : X } H.H.H.H.H.H.H.H.H.",
"H.H.H.H.H.H.H.H.H.H.H.H.H.H.H.E X g w s   B V.M.%.e.x.| / O.Q L U T S % = 3 2 2 4 3 @ X       . 2 e % w 6   -.H.F.H.H.H.H.H.H.H.",
"H.H.H.H.H.H.H.H.H.H.H.H.H.H.@.x 1 0 1 % O s ) n   y.C.] I ) O.&.` T U h x f h k k k j d . , , . 3 5 = t X v V.H.H.H.H.H.H.H.H.H.",
"H.H.H.H.H.H.H.H.H.H.H.H.H.@.# o & # o   L p.b   > T a.k._ _ ] +.%.O...| [ [ Y H P H G m j j 5 . @ @ = w O l.H.F.H.H.H.H.H.H.H.H.",
"H.H.H.H.H.H.H.H.H.H.H.H.4.% = q : = X   ) H.E   8   Z f.b.a.| ( _ [ [ O.2.2.+._ H G A m m e @ . X   = = 2.H.H.H.H.H.H.H.H.H.H.H.",
"H.H.H.H.H.H.H.H.H.H.V.Q   w t t e > X   F q.h % > X   Z y.>.e.>.] _ ! T [ | ] I m k m n 5     . .     ~ H.F.H.H.H.H.H.H.H.H.H.H.",
"H.H.H.H.H.H.H.H.H.x.> > 4 = e d w = X >   O Z 3 3 %   O   > O.m.z.9.-.` ( ( F V A F d 3.S.Z   X 3 3 n C.H.H.H.H.H.H.H.H.H.H.H.H.",
"H.H.H.H.H.H.H.H.H.h.  e @ X 2 y t - %   Z d.H.$.  >     O X 2 i.d.d.z.7.6.2.] R ^ ` C T A.T   8.C.A.F.H.H.H.H.H.H.H.H.H.H.H.H.H.",
"H.H.H.H.H.H.H.H.H.M.3   O O O . = t > t.H.H.S.(   O X o = 7 0 1 = :.v.y.v.n.s.r.q.u.;.s 4   7.H.H.H.H.H.H.H.H.H.H.H.H.H.H.H.H.H.",
"H.H.H.H.H.H.H.H.H.H.M.b   h O X X   | H.G.S.T X >       % 6 0 3 4 s e W v.m.m.A.H.A.m.m.v.$.V.H.H.H.H.H.H.H.H.H.H.H.H.H.H.H.H.H.",
"H.H.H.H.H.H.H.H.H.F.H.H.Z > 3   s 2.A.H.H.)   = o Z ) N X # 1 f x 1   D V.Z.C.F.H.A.H.H.H.H.H.H.H.H.H.H.H.H.H.H.H.H.H.H.H.H.H.H.",
"H.H.H.H.H.H.H.H.H.H.F.H.B.>   e N.H.H.H.F.k X 3 K H.H.m.b 8 0 X o e 8 E u.:.V.H.H.H.H.F.H.H.H.H.H.H.H.H.H.H.H.H.H.H.H.H.H.H.H.H.",
"H.H.H.H.H.H.H.H.H.H.H.F.H.t.Q g.H.A.H.H.H.Z O = J H.F.H.A.A.N.T [ l.N.N.c.g.V.H.H.H.H.H.H.H.H.H.H.H.H.H.H.H.H.H.H.H.H.H.H.H.H.H.",
"H.H.H.H.H.H.S.H.H.H.H.H.H.H.H.H.H.H.H.H.H.f.m.z...V.H.H.H.H.H.H.H.H.H.H.H.H.H.H.H.H.H.H.H.H.H.H.H.H.H.H.H.H.H.H.H.H.H.H.H.H.H.H.",
"H.H.H.H.H.H.F.F.H.H.H.H.H.H.F.H.H.H.H.H.H.H.H.H.H.H.H.H.H.H.H.F.F.H.H.H.H.H.H.H.H.H.H.H.H.H.H.H.H.H.H.H.H.H.H.H.H.H.H.H.H.H.H.H.",
"H.H.H.H.H.H.H.H.S.H.H.H.H.H.H.H.H.H.H.H.H.H.H.H.H.H.H.H.H.H.H.H.H.H.H.H.H.H.H.H.H.H.H.H.H.H.H.H.H.H.H.H.H.H.H.H.H.H.H.H.H.H.H.H.",
"H.H.H.H.H.H.H.H.H.S.H.H.H.H.H.H.H.H.S.H.H.H.H.H.H.H.H.H.H.H.H.H.H.H.H.H.H.H.H.H.H.H.H.H.H.H.H.H.H.H.H.H.H.H.H.H.H.H.H.H.H.H.H.H.",
"H.H.H.H.H.H.H.H.H.H.H.H.H.F.H.H.H.H.H.F.H.H.H.H.H.H.H.H.H.H.H.H.H.H.H.H.H.H.H.H.H.H.H.H.H.H.H.H.H.H.H.H.H.H.H.H.H.H.H.H.H.H.H.H.",
"H.H.H.H.H.H.H.H.H.H.H.H.H.H.F.S.S.S.H.G.F.H.H.H.H.H.H.H.H.H.H.H.H.H.H.H.H.H.H.H.H.H.H.H.H.H.H.H.H.H.H.H.H.H.H.H.H.H.H.H.H.H.H.H.",
"H.H.H.H.H.H.H.H.H.H.H.H.H.H.H.H.H.H.H.H.H.H.H.H.H.H.H.H.H.H.H.H.H.H.H.H.H.H.H.H.H.H.H.H.H.H.H.H.H.H.H.H.H.H.H.H.H.H.H.H.H.H.H.H.",
"H.H.H.H.H.H.H.H.H.H.H.H.H.H.H.H.H.H.H.H.H.H.H.H.H.H.H.H.H.H.H.H.H.H.H.H.H.H.H.H.H.H.H.H.H.H.H.H.H.H.H.H.H.H.H.H.H.H.H.H.H.H.H.H.",
"H.H.H.H.H.H.H.H.H.H.H.H.H.H.H.H.H.H.H.H.H.H.H.H.H.H.H.H.H.H.H.H.H.H.H.H.H.H.H.H.H.H.H.H.H.H.H.H.H.H.H.H.H.H.H.H.H.H.H.H.H.H.H.H.",
"H.H.H.H.H.H.H.H.H.H.H.H.H.H.H.H.H.H.H.H.H.H.H.H.H.H.H.H.H.H.H.H.H.H.H.H.H.H.H.H.H.H.H.H.H.H.H.H.H.H.H.H.H.H.H.H.H.H.H.H.H.H.H.H.",
"H.H.H.H.H.H.H.H.H.H.H.H.H.H.H.H.H.H.H.H.H.H.H.H.H.H.H.H.H.H.H.H.H.H.H.H.H.H.H.H.H.H.H.H.H.H.H.H.H.H.H.H.H.H.H.H.H.H.H.H.H.H.H.H."
};
