/* XPM */
static char *result[] = {
/* columns rows colors chars-per-pixel */
"61 64 163 2 ",
"   c #020103",
".  c #090405",
"X  c #0A0806",
"o  c #050209",
"O  c #0A040C",
"+  c #0C090C",
"@  c #11060F",
"#  c #100A0F",
"$  c #0E100F",
"%  c #13110F",
"&  c #0D0512",
"*  c #0E0A12",
"=  c #0C061C",
"-  c #120712",
";  c #120C15",
":  c #180D17",
">  c #150D1A",
",  c #190E1B",
"<  c #141215",
"1  c #191514",
"2  c #16121A",
"3  c #1A131D",
"4  c #1B191C",
"5  c #20141D",
"6  c #221C1D",
"7  c #170C22",
"8  c #1A0E21",
"9  c #1D1522",
"0  c #1E1B22",
"q  c #1C1328",
"w  c #1E192C",
"e  c #211625",
"r  c #221B25",
"t  c #211629",
"y  c #251C2A",
"u  c #291D2C",
"i  c #211730",
"p  c #261E31",
"a  c #291C31",
"s  c #242225",
"d  c #292522",
"f  c #2C2B27",
"g  c #26232A",
"h  c #2A232C",
"j  c #2B2B2C",
"k  c #322F2D",
"l  c #33312E",
"z  c #2C2230",
"x  c #2E2C32",
"c  c #312F32",
"v  c #30293E",
"b  c #2F3030",
"n  c #353335",
"m  c #383532",
"M  c #3C3935",
"N  c #363539",
"B  c #3A363B",
"V  c #36383A",
"C  c #3D3B3C",
"Z  c #403F3D",
"A  c #3E3C41",
"S  c #413C45",
"D  c #443D4A",
"F  c #434245",
"G  c #484647",
"H  c #4C4945",
"J  c #464549",
"K  c #49464A",
"L  c #4B4A4D",
"P  c #514F4A",
"I  c #55524D",
"U  c #4D4D51",
"Y  c #514E53",
"T  c #535255",
"R  c #585551",
"E  c #565857",
"W  c #585857",
"Q  c #565459",
"!  c #5A575B",
"~  c #5C5B5C",
"^  c #62615F",
"/  c #5F5E61",
"(  c #605E61",
")  c #636265",
"_  c #686764",
"`  c #686866",
"'  c #666569",
"]  c #6A676B",
"[  c #6B6B6B",
"{  c #6F706E",
"}  c #73716E",
"|  c #6D6D70",
" . c #757474",
".. c #797576",
"X. c #787877",
"o. c #767678",
"O. c #787779",
"+. c #7C7B7C",
"@. c #81807B",
"#. c #7C7C80",
"$. c #817F82",
"%. c #848384",
"&. c #878984",
"*. c #888887",
"=. c #878588",
"-. c #89868B",
";. c #8B8B8C",
":. c #8D908C",
">. c #8E8D91",
",. c #918F93",
"<. c #939293",
"1. c #99979C",
"2. c #9B9B9D",
"3. c #A0A09D",
"4. c #9E9CA1",
"5. c #A19EA4",
"6. c #9FA0A0",
"7. c #A3A3A4",
"8. c #A6A5AA",
"9. c #A9A7AA",
"0. c #ABABAC",
"q. c #B4B2AF",
"w. c #AFAEB1",
"e. c #B0AEB3",
"r. c #B2B2B4",
"t. c #BABAB5",
"y. c #B6B6B9",
"u. c #B9B7BA",
"i. c #BCBABC",
"p. c #C0BEBE",
"a. c #BFBFC0",
"s. c #C0BFC1",
"d. c #C4C4C5",
"f. c #C8C8C6",
"g. c #C6C6C8",
"h. c #C8C6CB",
"j. c #CBCBCD",
"k. c #CFCFD2",
"l. c #D3D3D3",
"z. c #D8D6D4",
"x. c #DBDAD6",
"c. c #D6D6DB",
"v. c #DCDCDC",
"b. c #E0DFDF",
"n. c #E1DFE1",
"m. c #DFE1E2",
"M. c #E3E3E4",
"N. c #E8E7E6",
"B. c #E8E8E5",
"V. c #E6E4E9",
"C. c #E9E7EA",
"Z. c #E7E9EC",
"A. c #EDEDED",
"S. c #F0F0EC",
"D. c #EEEEF2",
"F. c #F1EFF3",
"G. c #EFF0F0",
"H. c #F3F3F3",
"J. c #F8F6F7",
"K. c #C39662",
"L. c #F8F5F9",
"P. c #C39662",
"I. c #C39662",
/* pixels */
"I.I.I.I.I.I.I.I.I.I.I.I.I.I.I.I.I.I.I.I.I.I.I.I.I.I.I.I.I.I.I.I.I.I.I.I.I.I.I.I.I.I.I.I.I.I.I.I.I.I.I.I.I.I.I.I.I.I.I.I.I.",
"I.I.I.I.I.I.I.I.I.I.I.I.I.I.I.I.I.I.I.I.I.I.I.I.I.I.I.I.I.I.I.K.I.I.I.K.P.I.I.I.I.I.I.I.I.I.I.I.I.I.I.I.I.I.I.I.I.I.I.I.I.",
"I.I.I.I.I.I.I.I.I.I.I.I.I.I.I.I.I.I.I.I.I.I.I.I.I.I.I.I.I.P.I.P.I.I.I.I.I.I.I.I.I.I.I.I.I.I.I.I.I.I.I.I.I.I.I.I.I.I.I.I.I.",
"I.I.I.I.I.I.I.I.I.I.I.I.I.I.I.I.I.I.I.I.I.I.I.I.I.I.I.I.I.I.N.[ j A ~ =.g.H.I.I.I.I.I.I.I.I.I.I.I.I.I.I.I.I.I.I.I.I.I.I.I.",
"I.I.I.I.I.I.I.I.I.I.I.I.I.I.I.I.I.I.I.I.I.I.P.I.I.I.I.I.S.| *   o     . + g Z 2.P.I.I.I.I.I.I.I.I.I.I.I.I.I.I.I.I.I.I.I.I.",
"I.I.I.I.I.I.I.I.I.I.I.I.I.I.I.I.I.I.I.I.I.I.I.I.I.I.I.A.F   > q e y u z e 1 ; & j ;.I.I.I.I.I.I.I.I.I.I.I.I.I.I.I.I.I.I.I.",
"I.I.I.I.I.I.I.I.I.I.I.I.I.I.I.I.I.I.I.I.I.I.g.g.I.l.~ j + > u y u 5 : @ O O * > $   Q I.I.I.I.I.I.I.I.I.I.I.I.I.I.I.I.I.I.",
"I.I.I.I.I.I.I.I.I.I.I.I.I.I.I.I.I.I.I.I.I.9.< s T n     2 w y 9 , #   + 1 < <   * 4   T K.I.I.I.I.I.I.I.I.I.I.I.I.I.I.I.I.",
"I.I.I.I.I.I.I.I.I.I.I.I.I.I.I.K.I.I.I.K.I.%.  .   - y t w y 9 > . X . Z  ...[ 4 < < 4 . d.I.P.I.I.I.I.I.I.I.I.I.I.I.I.I.I.",
"I.I.I.I.I.I.I.I.I.I.I.I.I.I.I.I.I.K.I.I.I.j.o o e a a a p q ; + . L ^ %.h.l.8.O.7.C O < J v.I.I.I.I.I.I.I.I.I.I.I.I.I.I.I.",
"I.I.I.I.I.K.I.I.I.I.I.I.P.I.l.2.H.I.I.P.I.I.u.O . 5 e a y , * o S y.g.s.H.P.c.w.5.c   r   U K.I.I.I.I.I.I.I.I.I.I.I.I.I.I.",
"I.I.I.I.I.K.K.I.I.I.I.I.I.l.4   0 2.I.I.K.K.I.j.0   , a y 7 o   ' h.G.G.P.P.P.Z.e.) < + g   #.P.I.I.I.I.I.I.I.I.I.I.I.I.I.",
"I.I.I.I.I.K.K.I.I.I.I.I.I.S = A w   A m.I.I.I.I.v.o ; u e < o V Q | ;.k.P.I.H.0.,.r.' < o < X k.I.I.I.I.I.I.I.I.I.I.I.I.I.",
"I.I.I.I.I.K.I.I.I.I.I.I.I.S 7 q z 0 O 0 ;.g.d.I.g.  * e *   b 6.E     >.I.I.M.j % ;.0.L   0 o :.I.K.I.I.I.I.I.I.I.I.I.I.I.",
"I.I.I.I.I.I.I.I.I.I.I.I.L.D q 7 t e w , o o o B 6 . > @   b :.r.T     ;.I.I.N.m   0 y.$.$ < $ ' H.I.I.I.I.I.I.I.I.I.I.I.I.",
"I.I.I.I.I.I.I.I.I.I.I.I.V.u t q , y y p w > & o : 5 5 ; M :.r.L       <.J.A.c.C   4 2.2.A o 0   +.I.I.I.I.I.I.I.I.I.I.I.I.",
"I.I.I.I.I.I.I.I.I.I.I.I.v.* ; : 3 e u y a y & > y r + s @.f.L     * U i.m.i.i.$.g   0 O.) $ $   [ I.I.I.I.I.I.I.I.I.I.I.I.",
"I.I.I.I.I.I.I.I.I.I.I.K.I.%.  : y 9 y 8 t y > O > h * 0 &.p.J   + Q 0.j.r.+.,.a.:.s o 4.8.A *   ` I.I.I.I.I.I.I.I.I.I.I.I.",
"P.I.I.I.I.I.I.I.I.I.I.I.I.M.; > y y 8 y 9 t 8 o : s ; o b %.%.j J w.Z.j.! < j >.N.;.x 5.w.U X $  .I.I.I.I.I.I.I.I.I.I.I.I.",
"I.I.I.I.I.I.I.I.I.I.I.I.I.c.; 4 e 9 , t u q & O O < r o < +.y.=.4.V.P.y.4 +   U H.M.a.7.! 0    .S.I.I.I.I.I.I.I.I.I.I.I.I.",
"I.I.I.I.I.I.I.I.I.I.I.I.I.~ + y - & e t q t , & . O r 4 * B <.u.i.N.I.v.<.{ O.r.L.L.y.U < <   *.I.I.I.I.I.I.I.I.I.I.I.I.I.",
"I.I.I.I.I.I.I.I.I.I.K.I.<.  3 * o - y u e e t : o o + e 0 o x =.c.J.I.M.*.Z E w.H.n.,.h * s   &.I.K.I.I.I.I.I.I.I.I.I.I.I.",
"I.I.I.I.I.I.I.I.I.I.I.b.+ < ; : O , u u t , t r ; o o & r 2   Q c.I.I.g.4     T j.9.( r < 2    .I.I.I.I.I.I.I.I.I.I.I.I.I.",
"I.I.I.I.I.I.I.I.I.K.I.2.    3 r - t u e , 3 e r 9 - ; O ; 4 : | g.H.I.r.$     B j.,.r * 3   ) l.I.K.I.I.I.I.I.I.I.I.I.I.I.",
"I.I.I.I.I.I.I.I.I.I.I.7.  + 9 , & u r , - e 5 , e r u O - 9 & K 1.M.K.0.$     H F.4.s < 4   o.A.I.I.I.I.I.I.I.I.I.I.I.I.I.",
"I.I.I.I.I.I.I.I.I.I.G.+.  * 0 ; & e , , 3 r e ; , e e : O 9 3 o Z r.b.;.  X   G H.2.y * < *   :.I.K.I.I.I.I.I.I.I.I.I.I.I.",
"I.I.I.I.I.I.I.I.I.S.O.O < * 3 9 O q , - t y 5 ; @ @ e e - O r < o J 2.2.V     L V.1.g   O 0 * 6.I.K.I.I.I.I.I.I.I.I.I.I.I.",
"I.I.I.I.I.I.I.I.I.@.. < s y g r O O , , t > - 3 O : e e y & + r <   T 0.7.F T ;.i.;.x   o 3 + 6.I.I.I.I.I.I.I.I.I.I.I.I.I.",
"P.I.I.I.I.I.I.I.I.}   < 3 3 3 e O o > w ; O - , - O : y u & o o $ X L #.<.k.C.a.%.j + o o 3 + 7.I.I.I.I.I.I.I.I.I.I.I.I.I.",
"I.I.I.I.I.I.I.I.I...  O O & > 9 & > > - 9 - o - - @ & - e r < o 9 2 2 2 J >.1.-.x   o O 4 y o =.I.K.I.I.I.I.I.I.I.I.I.I.I.",
"I.I.I.I.I.I.I.I.k.4 < y 9 9 u 9 O > = o t 3 o * - o - o ; g r * o * + * * s 0 g 0 * o > 3 9 o ! I.K.I.I.I.I.I.I.I.I.I.I.I.",
"K.I.I.I.I.I.K.I.i.  0 0 y e h w & & O = 9 9 & O O + 3 + o + < 3 +   * ; O o > * : * o 9 u 9   <.I.I.I.I.I.I.I.I.I.I.I.I.I.",
"I.I.I.I.I.I.I.I.g.  O & , , 9 0 & - O * e u > o O * 0 > o o o < < * O o o & > ; & 3 & > y e ; M.I.I.I.I.I.I.I.I.I.I.I.I.I.",
"I.I.I.I.I.I.I.I.l.  o o > 3 3 y 9 & o > 9 y y ; O 9 y : o o o O : > - ; 3 3 ; ; * < O * < o $.I.K.I.I.I.I.I.I.I.I.I.I.I.I.",
"K.I.I.I.I.I.P.I.c..   o * ; ; r y O o = * 9 t 8 8 p y - O O & o o O O ; 9 9 < ; o   o O 4   8.I.I.I.I.I.I.I.I.I.I.I.I.I.I.",
"I.I.I.I.I.I.I.I.m.+ * 4 O   o : 2 O o O O & & > t t q - & ; 3 > : & o o   O O o   o o o 4 O g.I.I.I.I.I.I.I.I.I.I.I.I.I.I.",
"I.I.I.I.I.I.I.I.B.4 s 0 4 * o o ; o O O * & o & ; & = O o 2 y y h 9 * ;     2 X   * O o   F I.I.I.I.I.I.I.I.I.I.I.I.I.I.I.",
"I.I.I.I.I.I.I.I.A.0 < ; r 3 o . o   o o ; 4 3 ; O & & o o = q s u g r + s Z < o o 4 > *   %.I.I.I.I.I.I.I.I.I.I.I.I.I.I.I.",
"I.I.I.I.I.I.I.I.S.w & 9 y & + @ + + + o ; e g 9 > < ; O o * > * * 2 0 < +.t.1     ; < 9 + =.I.K.I.I.I.I.I.I.I.I.I.I.I.I.I.",
"I.I.I.I.I.I.I.I.G.g & 7 p y - ; g s r * o * 9 y y w > & * o o o > 2 A [ p.B.E *.<.  O * ; U I.P.I.I.I.I.I.I.I.I.I.I.I.I.I.",
"I.I.I.I.I.I.I.I.A.y ; 7 t w 3 + 3 + % O . - e y y r + + 2 2 * 2 L /  .%.t.P.I.I.;.  < 2 w * k.I.I.I.I.I.I.I.I.I.I.I.I.I.I.",
"I.I.I.I.I.I.I.I.I.j & 9 , > r . .     . + 1 3 3 4 4 O 0 Q Q Q Q #. .| s.f.&.M.S.C   r y g o 2.I.K.I.I.I.I.I.I.I.I.I.I.I.I.",
"I.I.I.I.I.I.I.I.I.1.  9 3 ; 6 . # 1 X d k k k c j g g V / / %.:...~ / l.v.X g { s + < 2 q 2 A u.I.I.I.I.I.I.I.I.I.I.I.I.I.",
"I.I.I.I.I.I.I.I.I.I.! + r + ; . 6 f k Z P I R P ) X. .+.$.&.:.+.} _ q.l.{ 4   j i.L   & O *   g d.I.K.I.I.I.I.I.I.I.I.I.I.",
"I.I.I.I.I.I.I.I.I.I.H.c # . . . X 6 M Z H P R } :.2.<.#.X. .[ { 3.x.z.[   1 o Q I.'   o ; 3 9 o B b.I.I.I.I.I.I.I.I.I.I.I.",
"I.I.I.I.I.I.I.I.I.K.I.d.+   . + .   1 m Z k Z ~  .+.} ~ [ { @.0.3.q. .  X $ $ g 8.J   O 3 r r u * < r.I.I.I.I.I.I.I.I.I.I.",
"I.I.I.I.I.I.I.I.I.I.K.I.+.+ 4 .   k H.7.h H Z Z T [ ` ..1.y.V.u.M   X o + 2 4 A +   $ O : e h 5 : 4   O.I.I.I.I.I.I.I.I.I.",
"I.I.I.I.I.I.I.I.I.I.I.I.I.H.H.d.4 C H.' C | ) ^ +.6.2.r.l.r.l./   * o   * o | I.a.A   * 3 y u ;   0   Q I.K.I.I.I.I.I.I.I.",
"I.I.I.I.I.I.I.I.I.I.I.I.I.I.I.I.j.  < 0 <.y.0.w.d.m.k.s.v.G + 9 9 > O o +   Q H.I.I.2.* r * O # + +   =.I.I.I.I.I.I.I.I.I.",
"I.I.I.I.I.I.I.I.I.I.I.I.I.I.I.I.K.<.l.M.V.S.I.G.m.M.s.B s 0 3 0 9 > o     < O Q J.I.I.)   o   < s   :.I.I.I.I.I.I.I.I.I.I.",
"I.I.I.I.I.I.I.I.I.I.I.I.I.I.I.I.I.I.I.I.I.J.I.K.A.H.g.< o 0 x 9 * o s ' U * *   [ I.I.N.%.+   0 ; 1.I.I.I.I.I.I.I.I.I.I.I.",
"I.I.I.I.I.I.I.I.I.I.I.I.I.I.I.I.I.K.I.I.I.I.P.I.x.1.r.c s 2 o & g 2 0.I.I. .* + n K.I.I.I.d.    ^ I.K.I.I.I.I.I.I.I.I.I.I.",
"I.I.I.I.I.I.I.I.I.I.I.I.I.I.I.I.I.I.I.I.I.I.I.I.M.f.v.N.M.r.L 0.P.G.I.K.I. .O * J I.K.I.K.I.7.` M.I.I.I.I.I.I.I.I.I.I.I.I.",
"P.I.I.I.I.I.I.I.I.I.I.I.I.I.I.I.I.I.I.I.I.I.I.I.I.I.I.I.I.I.I.I.I.I.I.I.I.-.g.m.d.I.I.I.I.I.I.I.I.I.I.I.I.K.K.I.I.I.I.I.I.",
"I.I.I.I.I.I.I.I.I.I.I.I.I.I.I.I.I.I.I.I.I.I.I.I.I.I.I.I.I.P.I.I.I.I.I.I.I.I.I.I.I.I.I.I.I.I.I.K.I.I.I.I.I.K.I.K.I.I.I.I.I.",
"I.I.I.I.I.I.I.I.I.I.I.I.I.I.I.I.I.I.I.I.I.I.I.I.I.I.I.I.I.I.I.I.I.I.I.I.I.I.K.I.I.I.I.I.I.I.I.I.I.I.I.I.K.I.I.I.I.I.I.I.I.",
"I.I.I.I.I.I.I.I.I.I.I.I.I.I.I.I.I.I.I.I.I.I.I.I.I.I.I.I.I.I.I.I.I.I.I.I.I.I.I.I.I.I.I.I.I.I.I.I.I.I.I.I.I.I.I.I.I.I.I.I.I.",
"I.I.I.I.I.I.I.I.I.I.I.I.I.I.I.I.I.I.I.I.I.I.I.I.I.I.I.I.I.I.I.I.I.I.I.I.I.I.I.I.I.K.K.I.P.I.I.I.P.I.I.I.I.I.I.I.I.I.I.I.I.",
"I.I.I.I.I.I.I.I.I.I.I.I.I.I.I.I.I.I.I.I.I.I.I.I.I.I.I.I.I.I.I.I.I.I.I.I.I.I.I.I.K.I.K.I.K.I.K.K.I.I.I.I.I.I.I.I.I.I.I.I.I.",
"I.I.I.I.I.I.I.I.I.I.I.I.I.I.I.I.I.I.I.I.I.I.I.I.I.I.I.I.I.I.I.I.I.I.I.I.I.I.I.I.I.I.I.I.I.I.I.I.I.I.I.I.I.I.I.I.I.I.I.I.I.",
"I.I.I.I.I.I.I.I.I.I.I.I.I.I.I.I.I.I.I.I.I.I.I.I.I.I.I.I.I.I.I.I.I.I.I.I.I.I.I.I.I.I.I.I.I.I.I.I.I.I.I.I.I.I.I.I.I.I.I.I.I.",
"I.I.I.I.I.I.I.I.I.I.I.I.I.I.I.I.I.I.I.I.I.I.I.I.I.I.I.I.I.I.I.I.I.I.I.I.I.I.I.I.I.I.I.I.I.I.I.I.I.I.I.I.I.I.I.I.I.I.I.I.I.",
"I.I.I.I.I.I.I.I.I.I.I.I.I.I.I.I.I.I.I.I.I.I.I.I.I.I.I.I.I.I.I.I.I.I.I.I.I.I.I.I.I.I.I.I.I.I.I.I.I.I.I.I.I.I.I.I.I.I.I.I.I.",
"I.I.I.I.I.I.I.I.I.I.I.I.I.I.I.I.I.I.I.I.I.I.I.I.I.I.I.I.I.I.I.I.I.I.I.I.I.I.I.I.I.I.I.I.I.I.I.I.I.I.I.I.I.I.I.I.I.I.I.I.I."
};
