/* XPM */
static char *acecf82028284b3494e90b6439632d2079IYDUS85KSRC3Ng[] = {
/* columns rows colors chars-per-pixel */
"64 64 27 1 ",
"  c #C39662",
". c #2ECB6F",
"X c #2DCC6F",
"o c #2ECC6F",
"O c #2DCB70",
"+ c #2DCB71",
"@ c #2ECB70",
"# c #2DCC70",
"$ c #2DCC71",
"% c #2ECC70",
"& c #2ECC71",
"* c #3BCF79",
"= c #48D282",
"- c #55D58B",
"; c #62D894",
": c #6FDB9D",
"> c #7CDFA6",
", c #89E2AF",
"< c #96E5B8",
"1 c #A3E8C0",
"2 c #B0EBC9",
"3 c #BDEFD2",
"4 c #CAF2DB",
"5 c #D7F5E4",
"6 c #E4F8ED",
"7 c #F1FBF6",
"8 c white",
/* pixels */
"                                                                ",
"                    .&&                                         ",
"                  .&&.&         #&&&&&&&&&&&&&&                 ",
"                  @..&.      #&&&&&&&&&&&&&&&&&&                ",
"                 &.&@@@   #&&&&&&&&&&&&&&&&&&&&#                ",
"                &.&.@@@ #&&&&&&&&&&&&&&&&&&&&&&                 ",
"               @.&&&@@@@&&&&&&&&&&&&&&&&&&&&&o                  ",
"              @@&.&&##&&&&&&&&&&&&&&&&&&&&&&&                   ",
"              @@@@@&&&&&&&&&&&&&&&&&&&&&&&&@&                   ",
"             @@@@###&&&&&&&&&&&&&&&&&&&&&&&#&#&&                ",
"            @@@@#@&&&&&&&&&&&&#&&&&&&&&&&&&&&&##&.              ",
"            @@@#@&&&&&&&&&&&&&##&&&&&&&#&&&&&&&&.&.&            ",
"           .@@##&&&&&&##&&&&-;;;;;;-####&&&&&&&&&.@@.&          ",
"           &@#@#&&&&&&&#*>488888888884>*&&&&&&&&&&#@&.&.        ",
"          &&#&##&&&&&&=278888888888888871=##&&&&&&#&.&&.&       ",
"          &&&&&&&&&&*188888888888888888887<*&&&&&&#@.&.&.&      ",
"         @#@#&&&&&#;688888888888888888888885=&&#&&&&@#&@@@@     ",
"  &&&#   @#&&&&&&&>88888888888888888888888887-&#&&&&&&@@@@@@@   ",
" #&&&&& @@&&&&&&&-8888888888888888888888888886*#&&&&&&@@@@@@@@  ",
" #&&&&&&@&&&&&&&-788888888888888888888888888885*&&&&&##&@@@@@@  ",
" #&&&&&&@#&&&&#*58888888888888888888888888888883&&&&&&&&#@@@@@@ ",
" o&&&&&&&&&&&##<88888888888888888888888888888888>&&&&&&&#o@@@@@@",
" #&&&&&&&&&&&&=8888888888888888888888888888888887*#&&&&&##@@@@@ ",
" #&&&&&&&&&&&&288888888888888888888888888888888882#&&&&&&&      ",
" ###&&&&&&&&#=888888888888888888888888888888888887*&&&&&&&#     ",
" @&&&&&&&&&&#,888888888888888888888888888888888888,#&&&&&&&     ",
"  &&&&&&&&&&#58888888888888888888888888888888888885#&&&&&&&     ",
"  &&&&&&&&&&*88888888888888888888888888888888888888&&&&&&&&&    ",
"  &&&&&&&&&&;88888888888888888888888888888888888888;&&&&&&&&    ",
"  &&&&&&&&&&,88888888888888888888888888888888888888>&&&&&&&&#   ",
"  &&&&&&&&&&<88888888888888888888888888888888888888<&&&&&&&&&   ",
"  @#&&&&&&&&<88888888888888888888888888888888888888<&&&&&&&&&   ",
"   &&&&&&&&&<88888888888888888888888888888888888888<&&&&&&&&&@  ",
"   &&&&&&&&&<88888888888888888888888888888888888888<&&&&&&&&&&  ",
"   &&&&&&&#&>88888888888888888888888888888888888888>&&&&&&&&&&  ",
"    &&&&&&##;88888888888888888888888888888888888888;&&&&&&&&&#  ",
"    &&&&&&&&*88888888888888888888888888888888888888*##&&&&&&&&  ",
"    #&&&&&&&#58888888888888888888888888888888888885#&&&&&&&&&&  ",
"     &&&&&&&#18888888888888888888888888888888888881#&&&&&&&&&&@ ",
"     #&&&&&&#-888888888888888888888888888888888888=#&&&&&&&&&## ",
"      &&&&&&&&488888888888888888888888888888888883&&&&&&&&&&&&# ",
" &.&&.&&&&&&&&;8888888888888888888888888888888888;&&&&&&&&&&&&# ",
"&.&.@@.@&&&&&&&4888888888888888888888888888888881@&&&&&&&&&&&&# ",
" &.&@@@.&&&&&&&*78888888888888888888888888888885*#&&&&&&&&&&&&# ",
" @@@@@@@@##&&&&&;888888888888888888888888888887-#&&&&&&&@&&&&&# ",
"  @@@@@@.&&&&&&&#>8888888888888888888888888887-&#&&&&##& &&&&&# ",
"    @@@@&.&&&&&&##-78888888888888888888888885*#&&&&&&@#   &&&&  ",
"     @@@&&#&&&&&&&#-788888888888888888888885*##&&&&&&#@     ##  ",
"      @@@@@##&&&&&&&=3888888888888888888882*&&&&&&&&@@          ",
"       @@@@@@#&&&&&&&&>788888888888888885:&&&&&&&&&&.&          ",
"        @@@@&&&&&&&&&&&&>58888888888885>##&&&&&&&&&&.           ",
"          @@&&#&&&&&&&&&OX=>24444442>=&&&#&&&&&&&&&&&           ",
"            ..&.@@#&&&&&OO&&&&&&#&&&&&&&&&&&&&&#..&.            ",
"             &@@@@#&&&&&$O&&&&&&##&&&&&&&&&&&&@#.&.&            ",
"                &&##&&&&$#&&&&&&&&&&&&&&&&&&#&#@@@@             ",
"                  &#@&&&##&&&&&&&&&&&&&&&&&&##@@@@@             ",
"                   &&&&&&&&&&&&&&&&&&&&&#&@@@@@@@@              ",
"                  &&&&&&&&&&&&&&&&&&&&&&###@@@@@@               ",
"                 &&&&&&&&&&&&&&&&&&&##&@o@@@@@@@                ",
"                 &&&&&&&&&&&&&&&&&&&&@   @@@@@@                 ",
"                #&&&&&&&&&&&&&&&&&&      @@@@@@                 ",
"                #&&&&&&&&&&&&&&#         @@@@                   ",
"                  #########              @@@                    ",
"                                          @                     "
};
