/* XPM */
static char *result[] = {
/* columns rows colors chars-per-pixel */
"64 64 211 2 ",
"   c #041125",
".  c #0A172B",
"X  c #0E1C34",
"o  c #0D1C36",
"O  c #111E35",
"+  c #111F38",
"@  c #0F2038",
"#  c #122136",
"$  c #16253B",
"%  c #19263C",
"&  c #1A2A3E",
"*  c #17273B",
"=  c #222D3E",
"-  c #7D273B",
";  c #1C2B42",
":  c #1D3144",
">  c #1F324A",
",  c #212D41",
"<  c #202F48",
"1  c #22354C",
"2  c #24394C",
"3  c #283748",
"4  c #263E54",
"5  c #293D52",
"6  c #323E50",
"7  c #323C4A",
"8  c #753B52",
"9  c #34404D",
"0  c #264055",
"q  c #2A455A",
"w  c #34485A",
"e  c #2F4A61",
"r  c #314C61",
"t  c #3E5365",
"y  c #39576D",
"u  c #3D5D73",
"i  c #45515E",
"p  c #434C5A",
"a  c #454F61",
"s  c #455161",
"d  c #4B5465",
"f  c #555F6C",
"g  c #405F76",
"h  c #5A5B73",
"j  c #6C5E79",
"k  c #58616D",
"l  c #476679",
"z  c #5C6575",
"x  c #6E627E",
"c  c #616978",
"v  c #70627E",
"b  c #65717C",
"n  c #7C4A5F",
"m  c #891A2B",
"M  c #951A2C",
"N  c #901F31",
"B  c #942333",
"V  c #9A2534",
"C  c #9A2939",
"Z  c #8F2637",
"A  c #A42535",
"S  c #AC2535",
"D  c #AD2837",
"F  c #A22C3E",
"G  c #AC2839",
"H  c #B22937",
"J  c #B32A39",
"K  c #B9293A",
"L  c #A21F31",
"P  c #CD2E3D",
"I  c #C42738",
"U  c #D12F3E",
"Y  c #CF303E",
"T  c #D2303F",
"R  c #A32F40",
"E  c #BA2F45",
"W  c #B43046",
"Q  c #BA3146",
"!  c #A83E52",
"~  c #BF3D57",
"^  c #A63F61",
"/  c #9F3C51",
"(  c #C92F40",
")  c #C43143",
"_  c #CE3142",
"`  c #CB364A",
"'  c #D23142",
"]  c #D5354B",
"[  c #D93649",
"{  c #DE3D54",
"}  c #DE3F58",
"|  c #D13751",
" . c #CE3348",
".. c #E23D55",
"X. c #E13F59",
"o. c #8A485F",
"O. c #B9455D",
"+. c #8C4C63",
"@. c #AA4A68",
"#. c #9F6B79",
"$. c #A76675",
"%. c #C5415C",
"&. c #CC455D",
"*. c #DD435B",
"=. c #D5455B",
"-. c #E24057",
";. c #DB4A62",
":. c #D7576D",
">. c #CE546A",
",. c #E65B75",
"<. c #E55972",
"1. c #E14861",
"2. c #DC657E",
"3. c #E6647C",
"4. c #E9647C",
"5. c #E7687D",
"6. c #456D85",
"7. c #4D768D",
"8. c #4E788F",
"9. c #487288",
"0. c #50758D",
"q. c #51798E",
"w. c #4E7791",
"e. c #4D7992",
"r. c #517B94",
"t. c #527A95",
"y. c #5C6C85",
"u. c #647A86",
"i. c #667C8A",
"p. c #677786",
"a. c #6B7186",
"s. c #AC6C86",
"d. c #AF6681",
"f. c #B87D95",
"g. c #AB7287",
"h. c #DE6B82",
"j. c #E56A82",
"k. c #EA6C84",
"l. c #E76780",
"z. c #EE7189",
"x. c #568199",
"c. c #79828C",
"v. c #699EB1",
"b. c #669AAD",
"n. c #6BA3B4",
"m. c #6EABBC",
"M. c #6DA6B9",
"N. c #73ACBC",
"B. c #72ABB9",
"V. c #76B1C1",
"C. c #83919C",
"Z. c #868997",
"A. c #979DA4",
"S. c #8F9CA3",
"D. c #B99CAB",
"F. c #9DA3AB",
"G. c #98A0A6",
"H. c #92ADB8",
"J. c #93ADB8",
"K. c #A4A8AE",
"L. c #B5B9BD",
"P. c #B2AEB9",
"I. c #D9899E",
"U. c #C2919E",
"Y. c #E08A9D",
"T. c #D78AA1",
"R. c #CD99AB",
"E. c #C696A7",
"W. c #D4A3B7",
"Q. c #CCB2BB",
"!. c #92B7C3",
"~. c #A9BBC2",
"^. c #B3B9C0",
"/. c #B8BCC0",
"(. c #DCBACA",
"). c #D5B8C6",
"_. c #CCB9C7",
"`. c #96C8D3",
"'. c #91C4CE",
"]. c #BCC1C9",
"[. c #A9CBD5",
"{. c #A8C2CB",
"}. c #BEDDE5",
"|. c #BFE0EA",
" X c #CCD1D5",
".X c #D5D9DC",
"XX c #D2D6DA",
"oX c #CBC8D1",
"OX c #C0DFE8",
"+X c #C6DBE1",
"@X c #D9DFE6",
"#X c #C2E2EC",
"$X c #C9E5EF",
"%X c #DAE2E7",
"&X c #CFF2FA",
"*X c #CFF3F7",
"=X c #D2F4FB",
"-X c #DCF5FC",
";X c #D6FBFF",
":X c #DBFDFF",
">X c #D1F2F6",
",X c #D4ECF6",
"<X c #E7EAEC",
"1X c #C39662",
"2X c #C39662",
"3X c #C39662",
"4X c #C39662",
"5X c #C39662",
"6X c #C39662",
"7X c #C39662",
"8X c #C39662",
/* pixels */
"7X7X7X7X7X7X7X7X7X7X7X7X7X7X7X7X7X7X7X7X7X7X7X7X7X7X7X7X7X7X7X7X7X7X7X7X7X7X5X7X7X7X7X7X7X7X7X7X7X7X7X7X7X7X7X7X7X7X7X7X7X7X7X7X",
"7X7X7X7X7X7X7X7X7X7X7X7X7X7X7X7X7X7X7X4X7X5X7X7X7X6X7X5X7X7X5X7X7X7X7X7X6X7X7X7X7X7X7X6X7X7X7X7X7X7X7X7X7X7X7X7X7X7X7X7X7X7X7X7X",
"7X7X7X7X7X7X7X7X7X7X7X7X7X7X7X7X<Xf f k k k f k k k k f k f f f f f f k f k f f k f k d L.7X7X7X7X7X7X7X7X7X7X7X7X7X7X7X7X7X7X7X",
"7X7X7X7X7X7X7X7X7X7X7X7X7X7X7X7X.X# X + o X X @ o @ o o o o o o X o o o o X + X X @ #   A.7X8X7X7X7X7X7X7X7X7X7X7X7X7X7X7X7X7X7X",
"7X7X7X7X7X7X7X7X7X7X7X7X7X7X4X7X.X= & ; ; ; ; ; ; ; ; ; ; , ; : ; ; ; ; ; > ; ; ; ; > # F.7X8X7X7X7X7X7X7X7X7X7X7X7X7X7X7X7X7X7X",
"7X7X7X7X7X7X7X7X7X7X7X7X7X7X7X7X%X% * * $ $ $ $ * $ $ $ $ + $ $ # + + + # # + + + + $ . K.7X7X7X7X7X7X7X7X7X7X7X7X7X7X7X7X7X7X7X",
"7X7X7X7X7X7X7X7X7X7X7X7X.X X X.X^.4 4 2 4 1 4 2 4 4 0 q q q r s t t t t t t t t t t s w S.XX X XXX8X7X7X7X7X7X7X7X7X7X7X7X7X7X7X",
"7X7X7X7X7X7X7X7X7X7X7X7Xc # , % 3 7.7.0.w.7.0.w.7.w.v.B.B.v.!.-X=X=X&X=X&X>X=X=X=X=X=X:Xu.# ; $ 9 <X7X7X7X7X7X7X7X7X7X7X7X7X7X7X",
"7X7X7X7X7X7X7X7X7X7X7X7Xk X & * 1 w.w.e.e.w.e.e.e.e.B.N.m.M.`.;X=X=X=X=X=X=X=X=X=X=X=X:Xu.X ; + 6 1X7X7X7X7X7X7X7X7X7X7X7X7X7X7X",
"7X7X7X7X7X7X7X7X7X8X7X7Xc # < & 2 7.w.7.e.7.w.w.7.x.n.m.m.n.'.;X&X&X=X=X&X=X=X=X=X&X&X:Xu.X > ; 9 <X7X7X7X7X7X7X7X7X7X7X7X7X7X7X",
"7X7X7X7X7X7X7X7X7X7X7X7Xf   # . ; t.r.t.r.e.r.r.e.x.N.N.V.N.`.2X:X2X:X:X2X:X:X:X:X:X:X2Xp.  # . 3 <X7X7X7X7X7X7X7X7X7X7X7X7X7X7X",
"7X7X7X7X7X7X7X7X7X7X7X7XL.A.G.F.C.r r w r w r r q e u u u u l i.i.i.i.i.i.i.i.i.c.i.i.u.C.F.G.A.K.8X7X7X7X7X7X7X7X7X7X7X7X7X7X7X",
"7X7X7X7X7X7X7X7X7X7X7X7X7X7X7X7X@X= + * $ $ $ $ * $ @ @ @ @ # X X X O X X X X X X X #   F.7X7X7X7X7X7X7X7X7X7X7X7X7X7X7X7X7X7X7X",
"7X7X7X7X7X7X7X7X7X7X7X7X7X7X4X7X.X, % & % % ; & ; ; & ; ; ; ; ; ; ; ; ; ; ; < ; ; ; ; @ F.7X4X7X7X7X7X7X7X7X7X7X7X7X7X7X7X7X7X7X",
"7X7X7X7X7X7X7X7X7X7X7X7X7X7X7X7X.X, ; & % & % * * * * * & $ * & * % $ $ $ + $ $ $ * ; X F.7X7X7X7X7X7X7X7X7X7X7X7X7X7X7X7X7X7X7X",
"7X7X7X7X7X7X7X7X7X7X7X7X7X7X7X7X.X; $ ; % ; > > ; : 1 1 1 > 2 0 5 3 5 5 5 5 7 3 * ; ; X F.7X8X7X7X7X7X7X7X7X7X7X7X7X7X7X7X7X7X7X",
"7X7X7X7X7X7X7X7X7X7X7X7X7X7X7X7X.X& % ; $ r 7.6.9.7.b.v.n.b.!.|.OXOX|.#X#X#X>XJ.& & & X F.7X7X7X7X7X7X7X7X7X7X7X7X7X7X7X7X7X7X7X",
"7X7X7X7X7X7X7X7X7X7X7X7X7X7X7X7X.X= % & $ y t.w.e.r.M.V.N.n.`.;X;X;X;X;X;X;X:X[.* & ; @ F.7X8X7X7X7X7X7X7X7X7X7X7X7X7X7X7X7X7X7X",
"7X7X7X7X7X7X7X7X7X7X7X7X7X7X4X7X.X= * & $ y t.t.e.e.n.N.N.n.'.=X=X=X=X=X&X&X;X{.& ; ; # F.7X4X7X7X7X7X7X7X7X7X7X7X7X7X7X7X7X7X7X",
"7X7X7X7X7X7X7X7X7X7X7X7X7X7X7X7X<X* # * + e 7.9.9.9.v.n.M.n.'.=X=X=X=X=X&X>X:X{.X X X   K.7X7X7X7X7X7X7X7X7X7X7X7X7X7X7X7X7X7X7X",
"7X7X7X7X7X7X7X7X7X7X7X7XL.S.A.F.C.r e q q i.!.!.H.!.[.[.[.[.}.2X2X2X2X2X2X2X2X+Xu.i.i.p.c.F.F.S.K.8X7X7X7X7X7X7X7X7X7X7X7X7X7X7X",
"7X7X7X7X7X7X7X7X7X7X7X7Xk   + . ; t.r.x.7.~.7X5X7X7X7X7X7X7X7X7X5X7X7X7X7X7X7X6X:X:X:X2Xu.  # X , <X7X7X7X7X7X7X7X7X7X7X7X7X7X7X",
"7X7X7X7X7X7X7X7X7X8X7X7Xc # ; ; 4 7.e.e.9.~.7X5X7X4X7X7X8X7X7X7X7X7X7X5X7X8X7X6X*X*X=X:Xu.# , % 9 1X7X7X7X7X7X7X7X7X7X7X7X7X7X7X",
"7X7X7X7X7X7X7X7X7X7X7X7Xz X ; $ > 7.e.e.9.~.7X7X7X7X7X7X7X7X7X5X7X7X7X7X7X7X7X6X=X=X&X:Xu.X ; * 7 1X7X7X7X7X7X7X7X7X7X7X7X7X7X7X",
"7X7X7X7X7X7X7X6X6X4X4X7Xz # ; ; 4 y.y.y.y.~.5X6X7X7X6X7X7X7X6X5X5X5X5X5X5X5X5X5X1X,X,X3Xa.+ < & 7 <X7X8X7X8X7X7X7X7X7X7X7X7X7X7X",
"7X7X7X7X7X7X7XoXp d d d g 6.6.l h @.@.@.@.D.2X-X-X-X-X-X-X2XXXI.Y.Y.Y.Y.Y.Y.Y.I.T.T.T.T._.[.[.[.~.f d d w A.5X7X7X7X7X7X7X7X7X7X",
"7X7X7X7X7X5X7XL.. # @ X u r.e.e.a.| ....] R.:X&X=X=X=X=X&X;X).2.5.5.l.5.5.5.4.5.5.l.l.2.(.:X=X:X|.: X # . a.7X7X7X7X7X7X7X7X7X7X",
"7X7X7X7X7X6X7X^.# & ; & l r.8.e.v %...-.] R.:X=X=X=X=X&X&X:X).5.k.k.k.k.k.k.k.l.k.k.k.h.(.=X=X=X}.0 * = O Z.7X7X7X7X7X7X7X7X7X7X",
"7X7X7X7X7X7X7X^.# & & $ g e.w.e.v | ....[ R.-X=X=X;X;X;X;X:XoXj.k.k.k.z.k.k.k.k.k.k.k.h.(.;X&X;X}.2 * ; O i.7X7X7X7X7X7X7X7X7X7X",
"7X7X7X7X7X4X7X^.# & & & l r.e.e.a.~ [ ..] R.-X&X=X=X_.Q.Q._.I.:.<.<.<.,.,.,.,.,.,.,.,.,.).=X=X;X}.2 * ; . Z.7X7X7X7X7X7X7X7X7X7X",
"7X7X7X7X7X4X7X^.# ; & $ u t.e.e.j W ( ' I U.2X&X=X%X/ A A S J P P P P [ { { X.X.{ { { | W.:X>X;X#X2 * & X i.7X7X7X7X7X7X7X7X7X7X",
"7X7X7X7X7X7X7X^.# = & $ u r.e.e.j W ' ' I U.-X&X;X$X! S J J E U U _ _ [ ..{ ....{ { ..| W.;X>X;XOX2 * ; X c.7X7X7X7X7X7X7X7X7X7X",
"7X7X7X7X7X7X7X^.@ ; ; $ u x.7.e.j Q ' T I U.-X=X*X%XO.S J J K Y ' P _ [ X.......{ ....| W.;X=X;XOX2 * ; X c.7X7X7X7X7X7X7X7X7X7X",
"7X7X7X7X7X6X7X^.@ ; * $ g e.7.e.j Q T ' I E.2X;X;X@X/ H J J K T ' ' P { X...{ ..X.X.-.| W.:X>X;XOX3 * ; X c.7X5X7X7X7X7X7X7X7X7X",
"7X7X7X7X7X7X7X^.# & ; $ g e.7.e.j W ' T I O.$.#.#.$.F V F A A D A A H E ) ) ) ) ) ) _ J R.;X=X;X}.3 $ & X c.7X8X7X7X7X7X7X7X7X7X",
"7X7X7X7X7X4X7X^.# & ; * g x.w.e.j W ' T T S M m m M B Z B Z B B B B B S D H D H G H H M E.;X&X;X}.3 * ; X c.7X5X7X7X7X7X7X7X7X7X",
"7X7X7X7X7X7X7X^.# & & & u r.e.e.j W ' U ' G C C V B B B B B Z B B B B G J H J J J J J A E.;X&X;X#X2 $ ; X c.7X7X7X7X7X7X7X7X7X7X",
"7X7X7X7X7X7X7XL.# & & * l r.w.e.j Q U U T J B B B B B B B B B B B B B G H H J H J H J A E.:X&X;X}.2 * ; X c.7X7X7X7X7X7X7X7X7X7X",
"7X7X7X7X7X4X7X^.# & & & u e.7.e.a.W ' ' ' J A A A V F F F F C B B B V G J H J H K K K S E.;X&X;XOX2 * ; X Z.7X7X7X7X7X7X7X7X7X7X",
"7X7X7X7X7X7X7XL.# ; & $ l e.8.e.j | ....-.` P ) I P 2.5.2.5.>.N C B V S H J H K ) P _ K R.;X=X;XOX2 $ ; X i.7X5X7X7X7X7X7X7X7X7X",
"7X7X7X7X7X4X7X^.# = & * g t.8.e.a.| ......] _ ' ' ' 3.z.k.z.>.N B B C G J J H K ' _ ' K R.:X&X;X}.3 $ ; X c.7X4X7X7X7X7X7X7X7X7X",
"7X7X7X7X7X7X7X^.+ & & * g r.7.e.a.%...{ ..] ( ' P ' ,.j.l.k.&.B B B B G J J J K ' Y ' I R.;X&X;XOX3 $ ; X c.7X7X7X7X7X7X7X7X7X7X",
"7X7X7X7X7X4X7X^.+ & ; $ g r.e.e.j ~ { { ..[ ' P P _ 3.z.k.z.>.N B B B A H H H K P P U I R.:X&X;XOX2 $ = X i.7X7X7X7X7X7X7X7X7X7X",
"7X7X7X7X7X7X7X^.+ & ; $ g r.e.e.a.| ......' P ' P _ *.;.;.;.| W E Q Q ` ) ` _ ` ;.>.;.| W.:X&X:XOX2 $ , . Z.7X7X7X7X7X7X7X7X7X7X",
"7X7X7X7X7X4X7X^.O & % $ u t.w.w.a.%...{ ..] U ' ' P P P P P [ -.{ -...} ..X...1.l.k.k.k.(.;X=X=XOX3 * ; O i.7X7X7X7X7X7X7X7X7X7X",
"7X7X7X7X7X7X7X^.O ; ; $ u t.w.w.a.| ..{ ..] P ' T T ' ' U U ] ..{ ............;.j.j.j.2.(.;X=X;XOX2 * ; . Z.7X7X7X7X7X7X7X7X7X7X",
"7X7X7X7X7X4X7X^.O ; ; $ 6.w.w.w.j | ..{ X.[ U U P P ' U U P ' { ......{ { { { *.k.k.k.l.(.;X&X;XOX1 $ ; X i.7X7X7X7X7X7X7X7X7X7X",
"7X7X7X7X7X7X7X^.o ; ; ; g w.w.w.a.~ { { } ' U _ ' ' ' ' _ ' ] X.{ *.{ X.-.} { ;.l.l.5.2.).;X&X;XOX3 * ; X c.7X7X7X7X7X7X7X7X7X7X",
"7X7X7X7X7X7X7X^.+ & & $ u r.e.e.j Z C A V ) { ..{ { <.,.3.,.3.4.4.4.4.4.5.5.5.:.F F F N D.:X&X;XOX3 * ; O c.7X5X7X7X7X7X7X7X7X7X",
"7X7X7X7X7X4X7XL.+ ; & $ g r.e.e.h 8 B B B E X.} { } l.k.k.k.j.k.k.k.k.k.j.k.z.:.B N B - D.;X>X;XOX2 * ; O c.7X7X7X7X7X7X7X7X7X7X",
"7X7X7X7X7X7X7XL.# , , ; l r.w.e.h Z V B B ) X.} { } 3.k.l.k.j.j.5.k.j.k.k.j.z.:.V B C m D.;X*X=X}.2 $ < # c.7X7X7X7X7X7X7X7X7X7X",
"7X7X7X7X7X8X7XP.  O O X u x.e.r.c - B B N E X.} { } l.k.k.k.k.k.k.k.k.j.k.j.k.>.N N N m D.2X:X2X$X& X #   b 7X7X7X7X7X7X7X7X7X7X",
"7X7X7X7X7X7X7X Xc b b b l u u u d 8 8 8 8 o.@.@.@.@.d.s.s.s.s.s.s.s.s.f.U.f.f.g.o.n +.n Z.J.H.J.G.u.c b c K.7X7X7X7X7X7X7X7X7X7X",
"7X7X7X7X7X7X7X7X7X7X7X7Xk X & # > 0.e.t.0.8.8.t.7.7.7.7.7.7.7.7.0.7.9.b.m.m.M.B.m.N.N.N.y . # . 3 1X7X7X7X7X7X7X7X7X7X7X7X7X7X7X",
"7X7X7X7X7X7X7X7X7X7X7X8Xc o ; % 2 7.e.w.q.8.e.w.e.e.w.e.e.e.e.e.e.w.8.n.V.m.m.m.m.m.m.N.u $ ; $ 9 <X7X7X7X7X7X7X7X7X7X7X7X7X7X7X",
"7X7X7X7X7X7X7X7X7X7X7X7Xz X ; & 1 7.e.e.q.w.e.0.e.e.w.w.w.w.w.w.w.w.e.b.V.m.m.m.m.V.N.N.u * ; $ 9 <X7X7X7X7X7X7X7X7X7X7X7X7X7X7X",
"7X7X7X7X7X7X7X7X7X7X4X7Xk . % * 1 0.q.q.0.t.t.t.8.t.0.t.q.q.t.q.t.q.e.v.N.N.N.N.N.N.N.V.u O * # 7 <X7X7X7X7X7X7X7X7X7X7X7X7X7X7X",
"7X7X7X7X7X7X7X7X7X7X7X7XXX].].oXK.5 4 0 4 0 4 4 0 0 4 4 0 4 4 0 0 4 4 w r r r r w r r q C.oX].].oX4X7X7X7X7X7X7X7X7X7X7X7X7X7X7X",
"7X7X7X7X7X7X7X7X7X7X7X7X7X7X7X7X<X% $ * * * $ $ * * * * * * * * * * * * $ $ * $ # * % . K.7X7X7X7X7X7X7X7X7X7X7X7X7X7X7X7X7X7X7X",
"7X7X7X7X7X7X7X7X7X7X7X7X7X7X4X7X.X= & ; & , ; ; & ; = ; & ; ; & ; & ; & & & = ; ; ; , # F.7X8X7X7X7X7X7X7X7X7X7X7X7X7X7X7X7X7X7X",
"7X7X7X7X7X7X7X7X7X7X7X7X7X7X7X7X.X* O # # + + # # + + + + + + + + + + + + + + + @ @ # . A.7X7X7X7X7X7X7X7X7X7X7X7X7X7X7X7X7X7X7X",
"7X7X7X7X7X7X7X7X7X7X7X7X7X7X7X7X%Xi i i i a a i i s s s s i s s s s s s a a i s i i s w P.7X7X7X7X7X7X7X7X7X7X7X7X7X7X7X7X7X7X7X",
"7X7X7X7X7X7X7X7X7X7X7X7X7X7X7X7X7X4X4X4X4X4X4X4X4X4X4X4X4X4X4X4X4X4X4X4X4X4X4X4X4X4X4X4X7X7X7X7X7X7X7X7X7X7X7X7X7X7X7X7X7X7X7X7X",
"7X7X7X7X7X7X7X7X7X7X7X7X7X7X7X7X7X7X7X7X7X7X7X7X7X7X7X7X7X7X7X7X7X7X7X7X7X7X7X7X7X7X7X7X7X7X7X7X7X7X7X7X7X7X7X7X7X7X7X7X7X7X7X7X"
};
