/* XPM */
static char *result[] = {
/* columns rows colors chars-per-pixel */
"64 64 191 2 ",
"   c #1C1C1C",
".  c #151417",
"X  c #201F1F",
"o  c #20201F",
"O  c #1D1E22",
"+  c #1F2021",
"@  c #242424",
"#  c #292726",
"$  c #2B2926",
"%  c #27292A",
"&  c #2A2C2D",
"*  c #232528",
"=  c #332C25",
"-  c #352E28",
";  c #382F28",
":  c #363127",
">  c #3C3226",
",  c #363329",
"<  c #3C3B2E",
"1  c #38362C",
"2  c #2C2F31",
"3  c #2E3134",
"4  c #2D353C",
"5  c #2F3A39",
"6  c #313336",
"7  c #3D3C31",
"8  c #343638",
"9  c #343D3E",
"0  c #3B3B3B",
"q  c #3A3733",
"w  c #2E312F",
"e  c #643E1B",
"r  c #413427",
"t  c #423528",
"y  c #403E35",
"u  c #3E412A",
"i  c #3F423C",
"p  c #36403F",
"a  c #6F4319",
"s  c #714319",
"d  c #43442C",
"f  c #49462B",
"g  c #46482D",
"h  c #41423D",
"j  c #464635",
"k  c #514E38",
"l  c #575935",
"z  c #5F4B26",
"x  c #654424",
"c  c #6A4725",
"v  c #604B26",
"b  c #6E4C2A",
"n  c #744C24",
"m  c #704E2C",
"M  c #6D5426",
"N  c #65512B",
"B  c #7E5F26",
"V  c #72502D",
"C  c #7C542B",
"Z  c #7F733F",
"A  c #2F3840",
"S  c #353D42",
"D  c #343F48",
"F  c #3F3F41",
"G  c #394246",
"H  c #3D4853",
"J  c #3F5050",
"K  c #3D4D63",
"L  c #444444",
"P  c #4E4B43",
"I  c #47494A",
"U  c #494A4A",
"Y  c #484746",
"T  c #515043",
"R  c #57564A",
"E  c #58574B",
"W  c #5A5B4B",
"Q  c #414C56",
"!  c #414E59",
"~  c #44525D",
"^  c #465454",
"/  c #505959",
"(  c #5D5D5D",
")  c #504F47",
"_  c #5B6A5F",
"`  c #566356",
"'  c #606F5F",
"]  c #6E7D5D",
"[  c #75764B",
"{  c #465562",
"}  c #485764",
"|  c #4A5966",
" . c #4C5C69",
".. c #515F6C",
"X. c #5D6C60",
"o. c #52616D",
"O. c #586363",
"+. c #546472",
"@. c #576978",
"#. c #596B7A",
"$. c #576977",
"%. c #636363",
"&. c #627166",
"*. c #824A16",
"=. c #85551F",
"-. c #86582C",
";. c #8B5C2D",
":. c #82562B",
">. c #905F2D",
",. c #8F5F30",
"<. c #816227",
"1. c #83652E",
"2. c #88692F",
"3. c #92602E",
"4. c #876930",
"5. c #886930",
"6. c #916131",
"7. c #9B7530",
"8. c #A16F3E",
"9. c #A17A33",
"0. c #A2703E",
"q. c #827C46",
"w. c #AA7744",
"e. c #74897E",
"r. c #8A8449",
"t. c #958C4A",
"y. c #9B9554",
"u. c #9E995A",
"i. c #97914E",
"p. c #A09A58",
"a. c #ADA55C",
"s. c #AFA85E",
"d. c #B2AA5E",
"f. c #B4BE46",
"g. c #B4AD61",
"h. c #BAB56A",
"j. c #C3BA65",
"k. c #C8BF68",
"l. c #BDCA4E",
"z. c #B7C248",
"x. c #BDCC55",
"c. c #CFDC4D",
"v. c #D2DE4B",
"b. c #C2D059",
"n. c #D5E24D",
"m. c #D4E355",
"M. c #DAEA56",
"N. c #DFEF5A",
"B. c #F7FF54",
"V. c #FDFF54",
"C. c #CCC36A",
"Z. c #D0C76B",
"A. c #D5CC6D",
"S. c #D5D569",
"D. c #E5F06D",
"F. c #5A6F80",
"G. c #5D7283",
"H. c #617587",
"J. c #617689",
"K. c #63798B",
"L. c #677E91",
"P. c #65808F",
"I. c #668291",
"U. c #698896",
"Y. c #748793",
"T. c #6FA09F",
"R. c #71A2A2",
"E. c #76ABAE",
"W. c #78AEB0",
"Q. c #7AB4B4",
"!. c #7DBABA",
"~. c #7DB4B9",
"^. c #6FA2A3",
"/. c #BFBFBF",
"(. c #83958C",
"). c #83C0C4",
"_. c #86C5C8",
"`. c #8DD5D5",
"'. c #91DBDC",
"]. c #93DFE0",
"[. c #C3C3C3",
"{. c #C39662",
"}. c #C39662",
"|. c #D1D7DB",
" X c #D4D6CA",
".X c #E0DFDF",
"XX c #DFDFE1",
"oX c #C39662",
"OX c #C39662",
"+X c #F1F3EE",
"@X c #E1E6D3",
/* pixels */
"OXOXOXOXOXOXOXOXOXOXOXOXOXOXOXOXOXOXOXOXOXoX( 0 L 0 i L Q ! ! ~ ! ! ~ ! ! L F L L 0 ( oXOXOXOXOXOXOXOXOXOXOXOXOXOXOXOXOXOXOXOXOX",
"OXOXOXOXOXOXOXOXOXOXOXOXOXOXOXOXOXOXOXOXOXoXY   @ @ @ % ! | { { { { { | ! * @ X *   i XXOXOXOXOXOXOXOXOXOXOXOXOXOXOXOXOXOXOXOXOX",
"OXOXOXOXOXOXOXXX}.}.}.}.}.OXOXOXOXOXOXoXXX[.I % 2 2 & 3 H { { { { { { { ! 3 & & 3 & I [.}.oXOXOXOXOXOXOXOXOXOXOXOXOX}.}.}.OXOXOX",
"OXOXOXOXOXOXXX%.L Y I L %.}.OXOXOXOX}.%.L I Q ! ! ~ ! H { { { { { { { } { ! ! ! H ~ H I L %.}.OXOXOXOXOXOXOXOXOXOXoX%.0 %.oXOXOX",
"OXOXOXOXOXOXoXL . @ @   L }.OXOXOXOXXXL   % H { { { { { { { { { { { { { { { { { { } H %   Y oXOXOXOXOXOXOXOXOXOXOX.X0 . L .XOXOX",
"OXOXOXOXoXoX{.E < 1 $ @ L [.oXoXXXoX[.I * 4 ~ { { { { { { { { { { { { { { { |  .}  .{ 8 * I [.oXoXOXOXOXoX}.oX.XoX{./ 5 / [.oXoX",
"OXOXOXoX%.F R u.g.y.< @ % L Y Y Y Y I Q ! ! { { { { { { { { { { { { { { | F.G.G.G.G.#.~ ! Q I L ( oXOXoX%.L Y I Y / R.!.^./ Y ( ",
"OXOXOXoXL . 1 s.A.g.1 O @ + @ @ @ X % ! } } { { { { { { { ~ { { ~ { { { | G.K.G.J.K.G.| { Q %   L }.OX}.L     o   5 !.].!.8 . 0 ",
"OXoX.X[.W 1 l d.C.g.k < < $ $ $ % # 2 ! { } X.' ' ' _ &.' ' _ / { } | |  .G.K.J.G.J.G. . .~ 2 @ L /.oX[.I 3 8 9 9 ^ T.!.T./ Y ( ",
".X%.h R p.d.d.j.C.k.d.d.y.< + $ % @ & ! { _ x.m.m.m.m.m.m.m.x._ { | #.G.G.J.J.J.K.J.G.G.G.+.3 @ % L I U +.@.G.E.!.T.J 5 / [.oXXX",
"}.Y . y d.A.C.C.C.C.C.A.g.u * $ @ @ 2 H K _ M.V.B.B.B.B.B.B.M._ K  .G.G.G.K.K.G.J.J.K.K.K.@.3 o @ o   & #.K.U._.'.!.9   Y }.OXOX",
"}.U X y a.j.j.C.k.k.h.j.a.< * * * * 3 ` X.] l.v.c.c.c.c.c.v.b.] X.&.Y.Y.Y.P.G.J.J.K.G.G.G.$.9 3 6 6 3 G #.G.P.~._.E.9   I }.OXOX",
".XU @ 1 r.y.p.j.C.j.y.y.r., * % @ @ d z.M.l.l d g g g g f d l l.m.S.@X+X|.Y.G.J.J.J.G. .|  .+.#.$.$.$.@.G.K.J.I.U.G.8   Y }.OXOX",
"}.L   : q.t.i.j.C.j.i.t.q., @ @ @ @ g n.V.n.d O @ O @ O @   d n.V.D.+XOX+XY.G.G.J.J.G.| { | G.K.K.K.K.K.K.K.K.G.K.@.2   Y }.OXOX",
"oX%.L P [ q.t.g.k.d.r.q.Z 1 @ $ # @ d f.n.z.f $ = = = = = $ t b.n.S. XoX|.(.e.Y.#.G.#.| { | G.K.J.J.G.G.#.@.#.@.@.+.I L %.}.OXOX",
"OXoXoX[.P = d r.y.r.d , w % @ % @ * $ u d f x x x x x x c c c t g d j Y R x.N.b.&. .| | { | #.K.J.J.K.#.S 3 3 6 3 U {.oXoXOXOXOX",
"OXOXOXoXY O , [ t.q.: @ @ o + @ @ @ @ @ O # x n n n n n n n x # O + @ O u n.V.M._ K { { { | G.J.J.K.K.@.2   X X   F oXOXOXOXOXOX",
"OXOXOX}.Y   < 4.t.[ : @ $ L Y L % @ $ = - > c n n n n n n n c r = = = $ f z.n.l.e.X.O./ {  .#.G.#.@.@.+.U Y I I L %..XOXOXOXOXOX",
"OXOXOX}.Y + , n =.s = + L /.oX[.h O = b C C -.-.-.-.-.-.-.-.:.c x x c x x f u l z.n.b._ { { |  .{ 9 3 U [..X}.XX}..XOXOXOXOXOXOX",
"OXOXOX}.Y o $ a *.a = O Y XXOXoXY @ ; C 6.;.;.;.;.;.;.;.;.;.-.n n n s n x # O d n.V.M._ K { { { Q &   I oXOXOXOXOXOXOXOXOXOXOXOX",
"OXOXOX}.L + : a *.s = @ Y }.OX}.Y + - b :.C ;.;.;.;.;.-.:.C C n n n n n c > $ f f.n.z._ { { { { ! h < R [.oX.X+XOXOXOXOXOXOXOXOX",
"OXOXOX}.L + = a *.s = O Y }.OX.XL @ # = = > C ;.;.;.;.C r $ r C -.-.-.;.:.c c x f d d ^ { { } { O.p.g.p.R F ' .XOXOXOXOXOXOXOXOX",
"OXOXOX}.Y + = a *.s = X Y }.OXoXL O * * + = C ;.;.;.;.C $ * = C ;.;.;.;.-.n n x $ + % ~ } { | { O.h.A.g.1 . L XXOXOXOXOXOXOXOXOX",
"OXOXOX}.L + = a *.s = X G /.oX/.P = - - - t C ;.;.;.;.C - * = C ;.;.;.;.;.n n c = @ % H ! ! ! H / u.g.u.k < R [.XX}.OXOXOXOXOXOX",
"OXOXOX}.L + = a *.a = @ & L I P m C C C C C ;.;.;.;.;.C - * - :.;.;.;.;.-.-.-.C = * $ & 2 2 2 & & < y k p.g.p.E L %.oXOXOXOXOXOX",
"OXOXOX}.Y + = a *.a = * @ @ X = C >.>.;.>.;.;.;.;.;.;.C = * = C ;.;.;.;.;.;.;.C - @ @ @ @ @ @ @ @ @   < g.A.g.1 . 0 }.OXOXOXOXOX",
"OXOXOX}.Y + = a *.a = @ # # # = m :.C C C C ;.;.;.;.;.C t & t :.6.,.;.;.;.;.;.C - @ # @ $ @ * # $ 1 < k p.g.p.E L ( oXOXOXOXOXOX",
"OXOXOX}.Y o = a *.a = @ @ # * # = = = = = r C ;.;.;.;.;.:.V :.7.w.8.,.;.;.;.;.C - * # # * # % @ 7 y.d.p.k < E [.oXoXOXOXOXOXOXOX",
"OXOXOX}.Y O = a *.a = @ @ @ @ @ @ * @ * + = C ;.-.;.;.;.;.;.,.w.w.w.6.;.;.;.;.C = @ @ @ @ @ @ + < g.A.g.1 . L }.OXOXOXOXOXOXOXOX",
"OXOXOX}.Y + = a *.a = @ $ w 6 6 % @ # = - > C ;.;.;.;.,.;.;.;.w.w.0.;.;.-.C C m q 6 6 6 6 3 6 3 h y.d.u.E L %.oXOXOXOXOXOXOXOXOX",
"OXOXOX}.L + = a *.s = @ 2  .#...3 @ = b C C ;.;.;.;.;.-.;.-.;.,.6.6.;.;.C t = q o.@.$.$.@.@.#.#.o.h < W [.oX}.OXOXOXOXOXOXOXOXOX",
"OXOXOXoXY + = s *.s = o 6 #.I.#.2 @ = :.6.,.;.;.;.;.;.;.;.;.;.;.;.;.;.3.C =   2 @.K.J.K.K.K.K.K.#.3   Y oXOXOXOXOXOXOXOXOXOXOXOX",
"OXoXoX[.h @ = e s a = @ 6  .#.o.9 3 q b C C ;.;.;.;.;.;.;.;.;.;.;.;.C C V i 9 G #.K.G.J.J.G.F.F. .4   Y }.OXOXOXOXOXOXOXOXOXOXOX",
".X%.L L % @ # = = $ $ @ $ 3 3 8  .#.o.q = : C ;.;.-.;.-.;.;.-.;.;.C t = h R.!.E.K.J.K.J.K.#.H D D % @ I }.OXOXOXOXOXOXOXOXOXOXOX",
"}.L   @ @ @ @ @ @ @ * @ * @ @ w #.L.#.3 o = C 3.;.;.,.;.;.;.;.;.;.C = O 9 !.'._.I.J.K.J.K.#.G A 4 % @ Y oXOXOXOXOXOXOXOXOXOXOXOX",
".XY @ % - - : = = = = - = $ @ 3 @.K.#.G 9 i m C C C C C C C C C C V h 9 ^ W._.Q.L.J.J.#.#.+.G A 4 %   L [..X.X+XOXOXOXOXOXOXOXOX",
"}.U @ = b C C C C C C C b = @ 3 @.J.P.E.!.^.i = - - - - = = - = = i T.!.E.U.I.I.J.J.F.H D D A A 4 % @ & L L ' .XOXOXOXOXOXOXOXOX",
"}.U @ = C 6.;.;.;.;.;.3.C - * 3 #.J.I._.].!.9 o @ + O @ @ @ @ @   9 !.'._.I.G.G.J.K.F.D 4 A 4 A 4 @ @ * @   G }.OXOXOXOXOXOXOXOX",
"XXY O = C ;.;.-.;.;.;.;.C = @ 3 $.J.I.~._.W.^ 9 p 9 S p 9 p 9 9 9 ^ E._.~.I.J.J.#.#.+.S 4 4 4 4 4 7 7 1 $ @ Y }.OXOXOXOXOXOXOXOX",
"XXY @ ; C ;.;.;.;.;.;.;.C = @ 3 $.K.J.I.I.U.E.Q.Q.Q.Q.Q.Q.Q.Q.Q.Q.E.U.I.I.J.K.@.S 2 2 & % * * * 1 y.g.y.1 O Y }.OXOXOXOXOXOXOXOX",
"}.U + : C >.;.;.;.;.;.;.C ; @ 6 #.K.J.J.H.I._.`.`.`.`.`.`.`.`.`.`._.I.G.J.J.K.@.6 @ @ @ @ @ # @ < d.Z.g.7   L }.OXOXOXOXOXOXOXOX",
"XXU o = m C C C C C C :.b = @ & o.#.@.J.H.K.~._.).).).).).).).)._.~.I.J.J.@.@.o.q = - - - = % @ 7 s.Z.a.u O Y }.OXOXOXOXOXOXOXOX",
"}.U @ $ = - = = = = = = = # @ % 3 & S @.J.J.I.I.I.I.I.L.L.I.I.I.I.I.K.J.@.9 2 q b :.C C C b = @ y d.Z.g.7 O Y }.OXOXOXOXOXOXOXOX",
"}.L   @ @ * @ @ * * @ @ * @ @ o @ @ 6 $.K.J.J.J.H.H.J.H.G.J.J.J.G.K.G.K.@.2 @ = C >.;.;.>.C - O 1 d.Z.s.7 O Y }.OXOXOXOXOXOXOXOX",
"oX%.L L & @ $ = = = # # % L Y F % @ 3 +.G.F.G.G.F.G.G.F.G.G.G.G.G.G.G.G.+.3 @ = C ;.;.;.;.C - @ y d.Z.s.7   Y }.OXOXOXOXOXOXOXOX",
"OX.XXX/.L + = e s e = o L [.oX[.h @ 2 ~  .| | |  . . . . .}  . . . .|  .~ & * - C ;.;.;.;.C = @ < d.Z.s.7 O Y }.OXOXOXOXOXOXOXOX",
"OXOXOX.XY @ = s *.s = O Y }.OXoXY X 2 ! } { } { { { { { { { } { { { { { ! & @ = C >.;.;.;.C ; O t s.Z.d.7 O Y oXOXOXOXOXOXOXOXOX",
"OXOXOX}.L   = a *.s = O Y }.OX}.L @ & H ! ! ! ! ! ! ! ! Q Q Q Q ! ! ! ! H & * = b C C C C b = @ < s.Z.s.d O Y [.oXoXOXOXOXOXOXOX",
"OXOXOX}.L + = a *.a = + Y }.OX}.Y @ * & & & & 2 2 & & 2 2 & 2 & 2 & & & & % * # = = = = - = @ @ < s.Z.g.P 8 0 L h ( oXOXOXOXOXOX",
"OXOXOX}.Y + = a *.s = + I }.OXoXL X @ @ @ @ @ @ @ @ @ @ @ @ @ @ @ @ @ @ @ @ @ @ @ @ @ * * @ # @ u g.C.g.T 0 0 #   L .XOXOXOXOXOX",
"OXOXOX}.Y + = a *.s = O L /.oX[.I 2 3 4 6 6 6 2 3 3 3 3 6 2 3 6 3 6 3 6 6 6 3 3 3 3 3 $ @ # @ * q s.Z.g.T 0 q & @ I .XOXOXOXOXOX",
"OXOXOX}.Y   = a *.a = @ % L Y U +.@.$.@.@.@.$.@.@.@.@.$.@.@.@.@.@.@.@.$.@.@.@.@.@.#.o.3 @ @ * @ < g.C.g.T 0 0 & X Y .XOXOXOXOXOX",
"OXOXOX}.Y + = a *.a = @ # @ X & F.K.K.K.L.G.K.K.K.J.J.K.K.K.K.K.J.J.K.K.K.K.K.K.K.K.#.3 @ @ $ @ 7 d.Z.g.) 9 0 % + Y oXOXOXOXOXOX",
"OXOXOX}.Y + = a *.a = * @ % @ 3 +.G.F.G.G.G.G.G.F.H.J.H.G.F.G.H.J.H.G.F.F.F.G.F.G.G.+.3 @ $ $ + < d.Z.g.T 0 q & @ Y }.OXOXOXOXOX",
"OXOXOX}.L + = a *.s = * @ # @ 2 { | | | | | | | ..F.J.F. .}  .G.J.F. .}  .| |  .|  .{ & @ @ @ @ < d.Z.g.T 0 0 &   Y oXOXOXOXOXOX",
"OXOXOX}.Y + = a *.a = @ $ % @ & H | { { { { { |  .G.K.H. .{  .G.K.G. .} { { { { { | H 2 * $ @ @ < d.Z.g.T 0 8 & + Y oXOXOXOXOXOX",
"OXOXOX}.L @ = a *.s = @ @ # @ & H ! H ~ H ~ J H ~ +.#.+.~ Q ~ +.#.+.~ H ~ ! ! ! H ~ H % * $ @ * q s.C.g.T 0 0 2 * L [..XoXOXOXOX",
"OXOXOX}.Y o = a *.s = @ # @ @ $ & & 3 & 2 & 2 & & 3 3 3 2 3 & 3 6 6 2 & 2 & 3 & 2 & & $ @ * % * < g.Z.g.T 0 0 0 8 0 L L %.oXOXOX",
"OXOXOX}.Y   = a *.s = @ $ @ * @ * @ @ @ @ @ * @ @ @ @ @ o o X @ @ @ @ * @ @ @ @ @ @ @ * * $ $ + 7 d.Z.g.T 0 F y 0 0 @   i }.OXOX",
"OXOXOX}.Y + = a *.a = o $ = $ : : : : 1 : : = = $ $ @ & i Y L % @ # = = = : : : : : : : = $ $ + < s.C.g.) 0 0 0 0 0 $ @ Y }.OXOX",
"OXOXOX}.Y O = a *.a = @ $ z M M 2.5.2.5.2.1.M M v : @ L /.oX[.F @ : z M M 1.5.5.2.5.1.M M v $ @ < s.Z.d.T 0 y F 0 0 $ @ Y }.OXOX",
"OXOXOX}.Y o = s *.a = * , M B <.7.7.7.9.9.7.B B M =   i .XOXoXL   o M B B 7.9.9.9.9.7.<.B M : + y d.A.g.T S F F 0 0 %   Y }.OXOX",
"OXOXOX}.Y o = e s e $ * = v M M 1.2.5.5.2.1.M n N ) L O..XOXoX%.L T N M M 1.5.5.5.5.1.M M z = * 1 y.d.y.k 8 q 0 0 q % @ Y |.OXOX",
"OXOXOX}.Y o o = = = $ * $ $ = = : : : : : : ; $ P [..XoX+XOXOX.XoX[.P $ , : : : : : : = : $ % @ $ 1 y 7 $ & % % % * @ @ Y }.OXOX"
};
