/* XPM */
static char *result[] = {
/* columns rows colors chars-per-pixel */
"64 64 253 2 ",
"   c #1B1909",
".  c #191C19",
"X  c #0C1D1E",
"o  c #2A1C0D",
"O  c #251C0A",
"+  c #371C05",
"@  c #2A1E13",
"#  c #251D16",
"$  c #311E11",
"%  c #1C2118",
"&  c #292407",
"*  c #36260A",
"=  c #242215",
"-  c #2B2314",
";  c #24231C",
":  c #2B241B",
">  c #2C2A1C",
",  c #282918",
"<  c #3C2C14",
"1  c #332A1D",
"2  c #3B2C1A",
"3  c #342617",
"4  c #3D331E",
"5  c #393419",
"6  c #3D350B",
"7  c #1C1E23",
"8  c #1B2427",
"9  c #1F2630",
"0  c #242523",
"q  c #2A2522",
"w  c #2A2A24",
"e  c #22252B",
"r  c #252A2C",
"t  c #2C2C2B",
"y  c #262826",
"u  c #3A2D23",
"i  c #342C27",
"p  c #2D312A",
"a  c #3C3424",
"s  c #34332C",
"d  c #3C3B2C",
"f  c #393625",
"g  c #282D35",
"h  c #2C3134",
"j  c #2C343B",
"k  c #29363A",
"l  c #333334",
"z  c #31353C",
"x  c #383A39",
"c  c #352F31",
"v  c #201F25",
"b  c #4A2A0A",
"n  c #422C15",
"m  c #452E19",
"M  c #43321C",
"N  c #483516",
"B  c #573B18",
"V  c #4E330E",
"C  c #432E22",
"Z  c #423323",
"A  c #453827",
"S  c #543C25",
"D  c #433B36",
"F  c #60391A",
"G  c #3A423A",
"H  c #39472E",
"J  c #55451A",
"K  c #544F1C",
"L  c #615D1D",
"P  c #494627",
"I  c #5C442B",
"U  c #584727",
"Y  c #595626",
"T  c #464637",
"R  c #574938",
"E  c #4A553B",
"W  c #585539",
"Q  c #4C502D",
"!  c #684C29",
"~  c #734D2B",
"^  c #69552A",
"/  c #77542D",
"(  c #644D33",
")  c #6A4E33",
"_  c #654E3B",
"`  c #6D5335",
"'  c #645339",
"]  c #6B533C",
"[  c #675839",
"{  c #7E5B35",
"}  c #775838",
"|  c #79633B",
" . c #6E7038",
".. c #5E603B",
"X. c #2C3642",
"o. c #2D3942",
"O. c #333B43",
"+. c #373A45",
"@. c #353D52",
"#. c #394749",
"$. c #3D4855",
"%. c #354A4B",
"&. c #3F4E63",
"*. c #474949",
"=. c #564C46",
"-. c #4A564A",
";. c #56534C",
":. c #5B544B",
">. c #595848",
",. c #434B54",
"<. c #434C5A",
"1. c #494C56",
"2. c #4C5352",
"3. c #44545C",
"4. c #4A535C",
"5. c #485857",
"6. c #545553",
"7. c #5B5A55",
"8. c #565958",
"9. c #665845",
"0. c #7A5C43",
"q. c #785E44",
"w. c #665D56",
"e. c #5B6656",
"r. c #696548",
"t. c #776548",
"y. c #686858",
"u. c #787A59",
"i. c #6D734E",
"p. c #445463",
"a. c #4A5464",
"s. c #4C5B64",
"d. c #4C5B6A",
"f. c #465865",
"g. c #535C64",
"h. c #535D6B",
"j. c #5A5C66",
"k. c #4E576A",
"l. c #4C6268",
"z. c #5B6364",
"x. c #54636C",
"c. c #586669",
"v. c #546372",
"b. c #5D6C7B",
"n. c #596975",
"m. c #5C747C",
"M. c #636767",
"N. c #616D7D",
"B. c #636D76",
"V. c #63737D",
"C. c #667678",
"Z. c #797B79",
"A. c #6E7866",
"S. c #8B5B2C",
"D. c #855B2C",
"F. c #845B33",
"G. c #8A5D33",
"H. c #835D3B",
"J. c #865A36",
"K. c #915E2F",
"L. c #8D612D",
"P. c #886237",
"I. c #986B3A",
"U. c #815F47",
"Y. c #846344",
"T. c #897A56",
"R. c #8C794F",
"E. c #A27845",
"W. c #817F73",
"Q. c #7A857C",
"!. c #778055",
"~. c #94925C",
"^. c #868866",
"/. c #9B986A",
"(. c #858577",
"). c #9B9976",
"_. c #8F8E6C",
"`. c #A19C6E",
"'. c #A19D74",
"]. c #A8A66B",
"[. c #A3A375",
"{. c #B7B573",
"}. c #A09F6C",
"|. c #C0BF6D",
" X c #BBC17B",
".X c #C5C478",
"XX c #5C7783",
"oX c #5E6E81",
"OX c #646D80",
"+X c #647483",
"@X c #6A7584",
"#X c #647A82",
"$X c #687987",
"%X c #767A86",
"&X c #817E85",
"*X c #778989",
"=X c #6B8A94",
"-X c #698995",
";X c #779397",
":X c #708890",
">X c #7CA19D",
",X c #7998A1",
"<X c #828584",
"1X c #C39662",
"2X c #959888",
"3X c #A19C93",
"4X c #98A68D",
"5X c #AEB08E",
"6X c #889FA1",
"7X c #85A3A5",
"8X c #8DB5BC",
"9X c #95ADB2",
"0X c #A8A9A5",
"qX c #B2B5B1",
"wX c #C2BEB9",
"eX c #BDC68F",
"rX c #BAC4B0",
"tX c #C4C688",
"yX c #C5C493",
"uX c #C5C69A",
"iX c #D5D39A",
"pX c #C5C9A8",
"aX c #C39662",
"sX c #CCD2B5",
"dX c #E7F0AE",
"fX c #E9F19E",
"gX c #97B7C2",
"hX c #BEBEC1",
"jX c #C39662",
"kX c #C39662",
"lX c #C39662",
"zX c #C39662",
"xX c #C39662",
"cX c #C39662",
"vX c #C39662",
"bX c #C39662",
"nX c #C39662",
"mX c #C39662",
"MX c #D7D6C9",
"NX c #C39662",
"BX c #CBD2D3",
"VX c #D4D4D2",
"CX c #D9D9D7",
"ZX c #D1CFD4",
"AX c #EDF3C9",
"SX c #C39662",
"DX c #C39662",
"FX c #C39662",
"GX c #C39662",
"HX c #C39662",
"JX c #C39662",
"KX c #C39662",
"LX c #C39662",
/* pixels */
"JXDXFXFXFXHXFXHXHXHXFXHXHXGXHXFXFXGXGXDXZXM.z +.+.z G ,.5.%.p.f.&.$.<.3.#.x G H s e.nXFXDXHXFXHXHXGXHXFXFXFXJXHXHXHXHXHXHXHXFXFX",
"JXJXHXHXFXFXHXHXFXHXHXHXHXHXHXHXFXGXFXGXCXM.e e t r k #.5.&.p.&.f.f.p.<.h 0 y 8 8 6.nXJXDXFXFXFXHXFXHXDXFXHXHXHXHXHXHXHXHXHXFXFX",
"HXHXDXLXvXVXKXJXHXHXHXFXHXHXHXHXFXSXZXvXqX6.v e r h z %.3.l.f.f.&.f.f.<.O.g g g r 2.0XvXBXKXJXJXJXFXDXCXcXVXVXcXCXDXHXGXFXHXFXFX",
"JXFXnX*X8.Q.BXJXHXDXFXHXHXHXGXHXFXVX&Xw.j.1.$.$.$.$.,.3.3.f.f.f.&.&.f.p.&.$.<.,.,.$.h.z.*XnXFXSXFXFXVXQ.6.6.y.;.&XcXGXDXJXHXHXHX",
"JXJXlXj.8 6.lXJXDXDXFXHXHXGXGXFXGXvX7.7 e +.<.<.l.3.&.f.p.&.&.f.3.p.p.p.p.<.a.a.a.#.9 X 4.JHJXFXHXJXaXe..   w . :.qXGXHXHXHXHXHX",
"BXBXqXM.#.z.qXBXlXNXNXCXDXHXDXCXmXqXz.z O.4.h.a.s.s.d.f.f.f.f.l.3.3.3.3.<.4.1.a.g.3.O.r 8.0XBXnXVXBX0Xe.> : T H y.0XvXmXDXGXHXHX",
"b.c.C.*X1X*XB.5.l.e.2.%XcXGXVXW.6.8.1.*.<.v.OXb.m.b.v.d.&.5.f.5.5.5.2.-.-.2.6.6.-.2.*.#.,.8.e.8.8.8.-.w   f !.).^.u.>.W.CXDXJXGX",
"#.% #.1XlX1X#.% X 9 8 4.jXHXZX*.. c @.a.k.N.$X+X$X$XoX&.&.&.f.%.$.-.-.E E E E -.>.-.-.-.%.h 8 w 0 ; , & & P /.uX[.W   W CXHXGXHX",
"c.-.e.*X9X:Xl.%.%.G k 5.9XCX9X*.r k #.h.v.OX@X+XoX$XoXd.l.5.5.5.e.e.!.!.!. . . .!.!.-.-.-.h w 0 0 w > P K L ~..X]. .V r.0XMXVXGX",
"BXlX9Xm.$.5.*X7X=Xm.c.l.z.e.1.g 9 z h.N.OXOX+X+X$X$XoXb.m.m.l.-.e.[.eXeXtXeXeXtXeX[.!.E -.h y 8 0 : P u./.].|..X{.].`.^.i.w.W.jX",
"HXJXBXl.X G 1XlX9X*Xm.c.k X 7 8 8 O.b.$X$X$XOX#X$X+Xm.#XV.c.$.H !.rXdXdXfXfXfXfXdXeX!.H H s 8 % # = R '.tXtX.X|.|..XiX'.A O =.jX",
"JXJXlXl.8 %.;X9X7X:Xm.c.$.o.o.o.j @.v.oXoXOX+X$XC.n.C.1X1XQ.!.!.!.[.eX X.X.X.X.X X].!.!.y.d > y q = D /.{.{..X.X.X].{.~.T q 8.jX",
"JXJXBXx.e #.V.;X*X#X+Xm.n.x.x.s.l.s.s.d.l.XXm.m.C.C.1XrXMXMXpXpX[. .L L L L L L L  .[.eX4XE , > w = f u.}.~.{..X{.].`.^.A = 7.vX",
"JXHXBX8.X j g.V.V.#X#X+XV.V.V.#XC.m.d.p.f.l.Q.!.e.A.*XnXSXSXdXdXeXQ & & & & & & & L eXdXeXE , % : ; 5 u.~.~.{..X{.~.~.i.d   6.qX",
"GXFXCX%X4.g.g.s.v.v.x.v.+X$X$X#Xm.m.l.p.&.l.c.!.Q.(.4XrXsXpXyXtX].K 6 6 5 5 N N 6 K ~.eX/.Q & , y > f ..i.!.].{.].I.i.r.y.;.Z.VX",
"HXGXDXLXZXqXh.g O.X.X.$.x.@X@X+Xm.v.l.5.&.l.-.!.rXsX0Xu.W Q Y J K K K Q U R I U Q K Y Y P 5 & , > > > f 6 J ^.~.^.Y 6 r.qXnXCXKX",
"HXHXHXHXDXjXM.v e e 9 z h.+X+X+XOXb.l.$.5.-.E !.uXAXtXY & & & * b J ` ` ) ) ! ! J B < + & - , . y % , = , N t.~.Y.S & R nXFXFXJX",
"HXGXGXGXGXcX&X1.2.2.2.2.j.B.oXn.b.d.s.5.5.A.!.!.5XtX].^ 6 n n * N ! ! ) ~ ~ ~ ~ / ! V < 2 - 1 i *.-.*.>   4 r.~.t.M o =.mXGXFXFX",
"HXHXHXHXHXDXZXhXvXvXnX4Xz.j $.f.v.f.5.%.e.4XrX[. .^ L J J J ! J K / } } { } J.J.H./ ] 9.R u 3 D 3XaX0X-.= 4 [ [ [ n O >.VXHXGXHX",
"GXHXHXJXGXGXGXHXFXFXFXnXe.. g $.p.3.5.-.!.rXAXeXL & * J ! K ! ! ^ | H.Y.Y.H.J.J.H.H.0.t.9.Z i =.mXFXmX>.O * U ( ( * O >.VXGXHXHX",
"HXHXHXHXHXHXDXFXSXMXsX0Xy.G *.#.1.5.5.5.!.5XrX[.Y * b ! ^ ! ^ ^ ^ ^ / } J.J.J.G.P.H.) ] _ C $ =.bXSXvX:.- * U q.I < - =.BXHXHXHX",
"HXHXHXFXHXHXGXFXCX(.>.i.(.4X(.c.4.l.5.-.%.G ..Y J B J ^ / / F.} / B b B } J.J.Y.J./ F m C 3 $ =.aXFXaX:.: < U ` ! < & >.mXHXHXHX",
"HXHXHXFXHXFXFXFXsX>.  H ).rX5XM.2.1.2.6.H 5 & & U ^ ! { } { H.H.~ b + b ~ J.D.J.J.~ V + + $ @ 9.bXFXbX9.3 M U ` I n - ;.BXJXJXHX",
"HXHXHXFXFXSXCXaXrXi.5 .._.[.!.-.*.,.,.*.T p & 5 I / ! H.P.F.J.H.~ b b b ~ Y.~ F.S.~ F b m m 2 9.0XaX0XR 3 2 S ` I < - 7.VXJXJXHX",
"HXJXHXFXHXLX(.:.y.(.).^...Q H f p h r l c q 3 < ) Y./ F.G.J.G.J.~ V + V D.J.J.S.D.F./ ] ] 9.=.R y.7.*.i 3 2 U ) I m @ :.VXGXHXHX",
"JXHXHXFXFXvX;.  d ).sX[.P   & & w p 0 0 q # 3 3 ) Y.F.G.G.G.S.F.~ b + V ~ J.J.J.F.H.{ t.q.q.q.9.i q : # @ 2 S ( U m o =.mXGXHXHX",
"HXFXJXJXFXCXW.*.y.(.5X^.W P P 1 ; q w 0 q i 1 2 ! | D.L.L.L.K.P./ J b F ~ J.D.J.J.{ } ) 9.9.9.=.i ; # 0 : 2 I ( ! m o :.BXHXHXHX",
"HXFXFXJXHXDXmXvXqXA.P W ^.'.Z.D = ; y 0 q w w 4 ' | P.| S.K.I.E.I./ ~ ~ J.J.J.S.S.~ B b m C Z a i 0 w w - 2 I ) S m o =.VXHXHXHX",
"JXFXHXHXFXHXDXHXaX9.  P _.aX3XT w v v v 7 v ; u 9.| P.P.| L.I.E.E.P.D.J.J.J.S.S.G.~ V + $ $ $ @ ; 0 e w : 3 I ( ! m o =.VXGXHXHX",
"JXHXHXHXFXHXDXHXCX(.=.w.(.2X(.*.x z +.+.z l x d W R [ { { L.I.E.I.K.G.G.K.J.S.S.J.~ S m C 3 q i x x h t : 2 I ( S m o =.mXHXHXHX",
"HXHXJXFXHXHXHXHXHXbXaX5XA.T ;.j.j.j.j.j.j.g.z.6.T a S ` | D.P.L.K.L.S.S.S.S.S.S.J.J._ _ R C q i 2.j.*.l : u I ] ! m @ :.mXFXHXHX",
"FXFXFXHXHXHXHXHXHXDXSXbX7.= x j.OX@X@XOX@XC.C.c.x % u _ | P.P.S.D.S.S.S.S.S.S.D.J.U.U.0.w.C q c 8.Z.z.x # u R _ S m @ 9.mXFXHXHX",
"HXHXHXHXHXHXHXHXDXSXFXbXz.. j 8.v.OX@X@XXXm.m.l.$.G T W ' } F.F.D.L.G.S.S.K.K.S.F.H.0.9.=.D l T 4.c.6.x w 2 D =.S u $ =.0XZXZXGX",
"HXHXHXHXHXHXHXHXFXDXFXvXy.0 g O.@.a.b.@XXXQ.m.Q.6X7X*XE u S ` H.{ P.F.G.S.G.G.G.H.! C C D 7.j.2.#.x h w : , 3 C C q q c 7.j.&XjX",
"HXHXHXHXHXHXHXHXFXFXFXvX8.0 y h X.@.n.#XXX#X-X=XgXlX6X*.  1 ' t.t.H.{ P.P.H.H.{ t._ 4 = c j.C.c.k 9 % = > 3 o + o $ $ @ q . 6.hX",
"HXHXHXHXHXHXHXHXFXVXmX0X6.0 y x X.@.d.n.b.m.m.=X7X8X1Xl.*.T W 9.} ] ] ` ` } ] 9.9.=.T G ,.c.C.n.k 0 ; f a n n N b m C u 3 # 7.jX",
"FXHXHXHXHXHXHXHXCXW.6.:.s ; > l +.+.@.$.3.n.m.XX=X-X-X;X1X*X-.f f f 4 f M 4 a a f *.Q.6X*X:Xm.n.x y i R _ ( ! ! ~ ~ 9.I C # 6.jX",
"HXFXHXHXHXHXHXHXMX;.. > = # 0 l z X.g j %.n.Q.m.m.Q.-X8XzX,X,.8 % , , , ; % % % X %.6XzX8X=Xm.x.#.= u 9.t.Y.{ { J.U.U._ A # :.jX",
"FXHXHXFXHXHXHXFXCX7.% 1 H P T s p g h h G 5.c.c.m.m.-X8XgX,Xf.%.%.%.%.G %.G %.%.$.f.;XgX7X;X+Xh.x # C 9.0.Y.J.{ J.} U.9.C o :.vX",
"FXFXHXHXHXHXHXFXCX>.  T W.3XA.T w ; p y w k G %.l.m.-XXX-X,X,X,X>X>X>X>X>X6X>X7X6X;X,X;X$XV.@XB.x @ C 9.0.U.J.J.J.U.U.0.C o =.bX",
"FXFXHXHXHXHXHXHXVXe.  T ).pX2XA = = = > : - = x c.C.m.XXXX-XgXkXxXxXxXxXxXxXkXkXzXgX-XoXXXm.@XB.c # A 9.0.U.U.H.J.0.U._ c $ =.jX",
"FXHXHXHXHXHXHXHXmX>.  E 2XpX).P & , 5 a M a u D ;.g.x.oX-X-X7X8X8X8X8XgX8X8X8X8XgX7X-X$XXXb.v.1.l q u R 9.) 0.0.0._ 0.R C q 6.jX",
"HXHXHXHXHXHXFXFXCX>.  T ).uX).S & M U ' _ _ =.R x x #.d.m.XX-X-X-X-X-X-X-X-X-X-X-X-X$XXXv.$.#.k t # w a C n n n n C C i : . 6.vX",
"FXFXFXHXHXHXHXHXMX>.  Q ).uX).S & M ' t.t.t.t.9.u : h h.V.oXm.$X-XXXm.-XXXXXXXXXXX$XXXXXd.o.8 8 . 7 q : @ $ * $ o $ 3 $ 0 # 4.jX",
"FXHXHXHXHXHXHXFXnX>.& P ).uX'.K * < ' t.0.0.t.] A q c j.N.b.oXoXv.m.oXoXoXoXm.b.XXb.n.m.l.k 7 9 ,.6.*., O 1 2 2 3 3 $ q =.6.%XlX",
"FXHXHXFXHXHXHXHXCX7.  Q ).uX'.P & < ' t.} t.q.] C # c 1.g.a.d.v.v.f.h.h.d.d.x.d.l.f.f.x.3.k 8 *.qXlX3X=.- 2 A R S u @ *.0XqXNXKX",
"FXFXHXHXHXHXHXHXmX>.  P ).yX).J & 5 ' t.0.0.q.9.C : c *.1.4.p.a.&.p.a.a.a.p.a.p.f.f.f.4.,.h 8 6.vXDXcXw.@ m S 9.R C @ :.ZXJXGXHX",
"FXHXHXHXHXJXLXnXqX=., I _.yX/.J & < U _ ] ] 9.R u # i +.,.<.<.$.&.$.$.&.$.<.$.,.%.$.$.$.#.j 8 6.NXHXcX:.O C R ( ( A $ :.bXJXGXGX",
"HXHXHXHXHXLXC.;.=.x 5 W ).yX`.P & & 5 4 2 u C i q e q g g g j g g X.g g g X.g X.g j O.j g e . 6.cXGXcX6.O C S ( S m o =.VXGXHXHX",
"HXHXHXHXFXBX6.q l x d W '.yX'.P - = , , = q v v v v v v e 8 9 8 9 e 9 9 9 9 9 9 9 9 e 7 8 8 8 1.jXGXcX7.@ < S } S m @ :.VXGXHXHX",
"HXHXHXHXHXVX7.0 w x A W /.yX'.S : > q 0 0 l +.+.X.X.+.+.j X.+.o.X.+.+.+.X.X.o.o.X.X.j X.j X.z ,.qXBX0X6.: 3 B ) ( m @ :.ZXHXHXHX",
"HXHXFXFXFXVX8.0 t s s W '.yX/.P ; w w y l 1.j.v.j.h.j.j.h.d.v.x.h.h.v.h.h.k.d.v.v.v.v.v.c.c.c.j.h.4.6.t : 2 I ) ! n o =.mXGXHXHX",
"HXHXHXGXGXcX;.. w s f ..[.yX`.P = 0 0 0 +.j.@X%X%X@X@XC.C.@X@X@XOXV.@X@X@X@X@X+X@X$X@X+X@XN.@Xn.+.7 e 0 : 2 ( ) I n o =.ZXGXHXHX",
"HXHXHXFXFXVX6.0 w s H W `.tX/.P : r r 8 l j.OXN.OXOXB.B.B.C.+X+XOXb.n.b.$X@XoXb.oX+XoXoXN.N.N.h.X.7 7 # 1 3 S ` I n @ ;.mXHXHXHX",
"HXHXHXGXGXcX6.0 q d A W /.yX`.P ; r 0 . g *.j.d.k.k.a.g.4.c.B.V.b.x.d.x.N.+Xb.v.d.d.k.d.v.k.k.,.X.e t q : * S ` I m o ;.ZXHXHXHX",
"HXHXHXHXHXVX6.; r s a W '.yX`.P : w r 0 g #.a.1.<.1.4.4.4.l.b.V.N.h.4.s.B.@XN.h.a.a.a.4.a.4.g.<.g v e q @ 3 I ( I M @ ;.VXGXHXHX",
"HXHXDXmXvX0X6.; i s P W [.yX/.Q w ; ; w h x *.<.,.+.*.1.1.1.k.h.g.4.$.4.4.c.j.4.1.,.@.*.,.,.#.*.t 0 w w - 2 I ` I M # ;.VXGXHXHX",
"HXGXVX<XM.7.x l x d A W [.yX/.P : # ; ; q t l l c h g h g g +.@.j j g z z #.z z h h s c t i c s t 0 q : @ 2 S ( I M @ =.VXHXHXHX",
"GXGXvX6.v q c *.*.D d W [.uX'.P = = , , - = : = # # # ; v v v e 7 e . 7 8 0 . ; ; ; : ; # # @ : : ; : - o n I ( I M @ ;.VXHXGXHX",
"FXHXcX7.v t z D x x d W ).yX`.P & , 4 M 4 4 A a A A A u u u t e r 6.1.*.s 0 ; i s f a Z A A Z Z a a u , - M I ( ( M @ ;.VXGXHXHX",
"GXGXbX7.0 t l x D x d W [.yX'.P & 1 Q W ' ..t.| t.t.r.' ' T a 0 *.0XbX0X;.; f =.=.>.9.r.t.t.t.[ 9.>.T 2 o n I ) I Z : :.VXHXHXHX",
"HXHXcX6.7 t l G *.x d >.[.uX'.P , 4 E 9.t.R.T.^.T.T.u.| r.R a # =.hXFXbX=.  1 T r.t.T.T.T.T.R.R.t.r.R 4 + n S ) S C @ ;.VXHXFXFX",
"HXHXZX7.# t x x x x f Q ^.[.T.A , i Q W W [ [ | | | | ^ I W 9.:.W.ZXSXmXZ.:.r.R Y ' }  .P.| {  .^ W P n $ n m I S C @ 6.CXHXHXFX",
"GXGXcX7.v t t y w q , 5 P Y Q & # = 4 5 N N N J V J B 6 m 9.3XwXbXKXFXFXsXwX5X9.d N N V B J J V n 5 < * < + b C S 2 # 6.BXHXFXHX"
};
